<mxfile host="app.diagrams.net" modified="2022-07-04T15:17:05.177Z" agent="5.0 (Windows NT 10.0; Win64; x64) AppleWebKit/537.36 (KHTML, like Gecko) Chrome/103.0.0.0 Safari/537.36" etag="q6QD-REr6YUp_KQvTlxs" version="20.0.4" type="github">
  <diagram id="mMmEWSEPF8pmQLeDGCGT" name="Page-1">
    <mxGraphModel dx="1422" dy="1805" grid="1" gridSize="10" guides="1" tooltips="1" connect="1" arrows="1" fold="1" page="1" pageScale="1" pageWidth="850" pageHeight="1100" math="0" shadow="0">
      <root>
        <mxCell id="0" />
        <mxCell id="1" parent="0" />
        <mxCell id="Ua_9i-EX72ZuRTSeKU5E-8" value="" style="group" vertex="1" connectable="0" parent="1">
          <mxGeometry x="230" y="-660" width="380" height="738" as="geometry" />
        </mxCell>
        <mxCell id="Ua_9i-EX72ZuRTSeKU5E-6" value="" style="shape=image;verticalLabelPosition=bottom;labelBackgroundColor=default;verticalAlign=top;aspect=fixed;imageAspect=0;image=data:image/png,iVBORw0KGgoAAAANSUhEUgAAAXIAAALiCAYAAADEql3XAAAgAElEQVR4nOzdd3xV9f3H8dfdudmbbFbYI+whIMgQS1mCo4parah11LY/Z63aOqu2Fq3bunBhwcFGlkAgYY+wSUIC2XuPu8/vj8CVmMFKuLnJ5/l48HiQe77nnM+5gfc993u+53tUiqIoCCGEcFtqVxcghBDi8kiQCyGEm5MgF0IINydBLoQQbk6CXAgh3JwEuRBCuDkJciGEcHMS5B1EbW0t5eXlri6jnpqaGoqLi5FbGcSlqKiooKamxtVltAkS5B1ASUkJjz32GKmpqa4upZ6lS5fy+OOPY7fbXV2KcEMpKSk8/fTT5ObmuroUl5Mgb+eqqqp44IEHGD58OEOHDnV1OfVUVlZSWlrq6jKEmxo8eDBDhw7l8ccfp6SkxNXluJQEeTtmt9t5+umn6dSpE7fddpuryxGiRanVam666SZiYmJ46aWXMJvNri7JZSTI27Eff/yR1atX8+yzz6LRaFxdjhAtTqfT8cADDxAfH8/q1atdXY7LSJC3UzU1NTz77LM8+OCDBAYGurocIVpNZGQkt912G6+++mqH7WKRIG+nvv/+e3JycrjjjjtQqVSuLkeIVjVnzhwKCgpYtmyZq0txCQnydshut/Phhx9y3XXX4evr6+pyhGh1kZGRTJgwgS+//JLq6mpXl3PFSZC3Q4cPHyYpKYmpU6dK37joENRqNddeey07duzg1KlTri7nitO6ugDRuPz8fH744QeCgoL49a9/jaenJwCZmZmsWrUKRVG49tpr6d69e4N1ExISqKioYPTo0c3uw2q1snnzZo4cOcKkSZMYMGBAgzaKolBYWIi3t7ezhislPz+f5cuX4+HhwezZs/Hx8WnQxmKxUFhYSGRk5BWtra2qqanh+++/p7Kykjlz5tCpU6cGbex2O3l5eYSFhbWrD/r+/ftjNBrZtGkT/fr1c3U5V5SckbdBeXl5PP744/Tr149FixYxefJkqqureeWVV3j99dcZOXIkXbp0Ydq0aXz44YcN7oxMSEigR48ezV7krK6u5qmnniI7O5vIyEimTZvG9u3bG7Tbu3cvXbt25dlnn23x42yKoijs3r2bZ555hv79+7NmzRp++9vfNnoX30MPPUTv3r05ceLEFauvrcrPz+d3v/sdERER5OfnM2XKFAoLCxu0e+utt+jSpQvr1q1zQZWtJyYmhoCAALZv347NZnN1OVeUBHkb9PXXX3P99dczbtw4rrvuOrZv387MmTPx8fHhjTfeYPDgwfzqV7/irrvu4sknn2Tfvn3OdRVF4ejRo0RFRaHT6RrdvqIoLFmyhN69e3PnnXfSu3dvamtr+eqrrxq0W7duHTU1NXTr1q1Vj/lcFRUVvPfee7zwwguMHj2aqKgoVq1axenTp+u1czgcLFu2DJ1OR3R09BWrry1SFIW//vWvPP/880ycOJHY2FiOHDlCfHx8vXYOh4OVK1dit9vp2rWri6ptHb6+voSHh5OWlobJZHJ1OVeUBHkbU1NTw6FDh5zdIidPngRg6NCh3H///fXa9uvXj9LSUr7//nvnayUlJZSUlODv79/k1+bS0lI2b97MnDlzADh69ChlZWV4eXnVa2e329myZQteXl4MGzasxY7xfDZu3MiAAQPo1KkTJpOJPXv2YDAY0Grr9wQeOnSIgoICRowYcd5un7KysnY9FcChQ4fw8PAgNjYWh8PB9u3b0Wg0eHh41GuXlZXFiRMn6N27d6PdLm3JpfzOQkNDycnJwWKxtFJVbZMEeRuTnZ1NaGgoISEhKIrCrl27UKvVzJ8/H7W6/q/r7NfH3bt3O1+rqqrCYrEQEhLS5Bl5SkoKUVFRBAQE4HA4WLp0KQAzZsyo185kMrF7924CAgLo379/Sx5mk+x2O9u2bWPq1KkAJCcnk5SUxPDhwxv0g2/duhWAcePGNbk9m83Gzp07ufrqqxvtZmgv1q5dy6xZs1Cr1VRXV7N69WrCw8MZOXJkvXYnTpygsLCQuLi4Rq85tAU2m41du3YxYcIE8vLyLmrdiIgIysvLO1zXilzsbGMiIiJ4+OGHUavV5OTkcPToUXr37k1UVFSDtmevzp/7NbK2tva8/4h79erl/FqdlZVFYmIicXFxDS4Q7d+/n9LSUq6++uordqFTpVLx0EMP0blzZ6Du7LykpITrr7++QQ0//fQTGo2m0Yu6J06cYP369Zw4cYLVq1eTlpbWrmdZvPHGG4mIiABg165dnDp1invvvZfg4OB67RISEjCbzYwZM6bBNxxXS05Odv7O1qxZQ2pqKg6H46K30xGDXM7I2xgvLy/nmefBgwcpLy9n8ODBGAyGeu1sNht79uwBuOi+Tn9/f0JDQwGIj48nKyuL6667Dn9/f2cbRVGcZ7xXXXXVJR/PxVKr1XTr1g2NRkN1dTVLly4lODiYSZMm1WtntVrZvn07RqORIUOGNNiO0WikW7du3HvvvR1inpkuXbqg1+txOBwsWrQIvV7P7Nmz67Wx2+0kJiai0WganKm3BUajka5duzJ//nzuuOOOS95OR7wBrm19JIt6EhMTMZvNjB8/vkF/d2VlJUlJSahUqnpdC97e3uh0OqxWKw6Ho0F3zLkcDgdr1qxBpVJx3XXXNfgP8NNPP2EwGJrtumhNGRkZHDp0iLi4uAYfVklJSRQVFTF27Nh6H0BnxcTEEBMTA8Dy5cuvSL1tgdVqZe3atQQFBTX4AD7bPx4bG0uXLl1cVGHToqOjnRet16xZc0nbsNlsBAYGNtmt2F7JGXkbZbPZ2LRpExqNptEz4pSUFE6cOEFkZCQTJ050vu7r64ter6ewsPC8Xy9LSko4cOAAnTt3bjAe3Wq1sm/fPvz9/Z1nvLm5ufW6cbKystiwYQOnT592dlukp6ezceNG4uPjKSsru+Tjh5+7dq666qoGF+327t2LzWZzHrvVaiUrK+uy9tcepKSkkJWVxdChQ/Hz86u3LD09nfz8fOLi4pxDU0+dOuXsvqioqGDTpk0kJSU5XyssLGTr1q1s3LiRrKysNt89lZubi7+/f5vrNmptEuRtVEZGBikpKcTGxjYYWqcoCkuXLsVut3PbbbfVO7vy9fUlLCyMoqKi8wZ5UVGR82aaX57VHjx4kNLSUoYPH47BYMBisfDvf//bOX94RkYGb731Fnv27GHatGns3r2bt99+myVLllBWVsbKlSuZM2fOZV1gPHr0KECjN3ecHVY3ZswYoK5/9eOPP77kfZ1lNpsvqn/Vbrc3e0u4xWJpdiiczWZrdn2r1XpR07M2957t3LkTs9nM6NGj0Wg0lJeX8+qrr+JwOLDZbLz44oukpqZy55138umnn7Jq1SreeustcnNzSUpKYvbs2fUurLdFOTk5hIeHo9frXV3KFSVB3kYdPnyYkpISwsLCGnxNzM7O5vPPP2fIkCHOC6PnGjRoEOnp6ecdgqUoCoqiEBAQ0OBC4ubNmwGcZ+MlJSVUVFQ4h6wtXryYWbNmcfPNN1NQUMA999xDdHQ0jzzyCHPnzuXhhx9my5YtbNmy5ZLfg7Nnhb8crVJdXc2uXbvq1ZeYmMjgwYMveV8AO3bsYNy4ccydO/eCRktUV1fzhz/8gWHDhjX6IZKVlcWkSZMYM2YMSUlJDZaXlZVx1113MWLECL777rsGy7Ozs5k6dSoTJ07kyJEjF3QMTb1nFouFhIQE4Of3bNeuXfTu3RuNRsOOHTsICwtj3rx5+Pr68ve//50jR47w5JNPctNNN/Hwww9TXV3Nl19+eUF1uEJBQQH5+fn069cPo9Ho6nKuKAnyNiohIQGr1UpycnK9UDGZTDz22GMYjUY+/vhjwsPDG6w7cuRICgsLyczMbHYfoaGhREZGUl5eTm1trfP1I0eOsGjRIlQqFX369AHqhvrFxcWhVquxWq3U1tbSp08fTp48SWVlJTNmzGDGjBnOvvzc3NzLvug0aNAgVCpVveO32+0sWLCA0tJS5zcJk8nEli1bLvui7Lfffsvu3btZvnw533zzzXnbZ2dn8+mnn3L8+HE+/fTTeu8hwOrVq9m2bRv79u1jyZIlDdY/duwYixcv5ujRoyxcuLDBB++GDRvYtGkTiYmJvP766xd0DGd/R+e+Zw6Hg2+//ZakpCQCAgKco1uWLVvG5MmTUalU7N+/n5kzZ1JdXU1ycjK9evXiwQcfdH7Al5aWNji+c7dfVlZGRUXFBf9pjYdAZGVlUV5eztixY5u9NtQedayOJDdhtVpJSEhArVbz3HPP8fTTT/Poo49it9t5+eWXMZlMLF++3Bmyv3T11Vfj7+/Pjh07Gp0/5azAwECefPJJHnvsMRYtWsS4cePYtWsX8fHxLF68mIkTJ7Jt2za6d+/O0qVLWbBgAQBarZZHH30UDw8PEhIS0Gq13HPPPfX+8yQmJuLn58egQYMu+X249tprmTNnDu+//z49evRArVbzxRdfMHjwYF588UUefvhh9u7dS0JCAoMGDWow1O5iTZkyhS+//BKDweDsomhOWFgY06dPZ82aNcyZM6dBP/7EiRPp0aMHlZWVTJs2rcH6sbGxTJgwgR07djBnzpwG37yuuuoqunXrRkVFxQVPBNWzZ0/+/Oc/s3jxYqZOnUpwcDDLly9HpVLx7rvvMm/ePHbt2sWBAwfQ6/X06NEDgPnz5+Ph4UF8fDxFRUXcfffd9W4QS0lJoaioiAkTJjTY5w8//MDvf//7i/rgHjhwIBs2bLjg9hdi3759qFQqxo4d26LbdQcS5G3Q6dOnSUtLo3fv3sydO5fx48ezYsUKAB555BGGDRvWYDjiubp168aoUaNYsWIFd955Z5NX8FUqFTfddBMDBw5k48aNLF68mCFDhrBgwQKMRiOJiYksXbqUxMREXnnlFeeQRZVK5fzqum3btgYhajab+f777xkwYMBl3drv7+/PwoUL2bx5M6tXryYwMJB77rmHnj17oigKvXv3Zu3atfTt25fp06df8n7OmjJlijOwPvnkk/O29/X15csvv8RkMuHt7d0gyGJjY9m/fz8OhwNvb+8G64eEhLBs2TIsFgteXl6Nrn/w4EGqq6t58cUXL+gYNBoN//jHP5gxYwbbt29Hp9MxadIkBg8ejFqtZvPmzWzYsIHQ0FCee+45Z1/y2d9nQkIC/v7+DB8+vN52V65ciY+PT6PDFmfOnNlgeOj5tMbFyLVr1zJ+/PhGv6W2e4poc5YvX65oNBpl3rx5is1mu6Rt/Pjjj4qvr6+SmZnZwtX9LDMzU4mMjFT+7//+T3E4HM7Xjx49quj1euWdd95RHA6H8sknnyjJyckN1n///feV66+/XrFara1Wo6IoyosvvqgASk5OzgW1P3jwoPLee++1ak0Xo7i4WHn66adbfT9ms1m59tprlSFDhtT7fZaUlCj9+/dXbr31VsVqtSqbNm1S1q5d26q1vPLKKwqgZGRkXFD7o0ePKhEREcqqVatata62qmN1JLmJrVu3YrfbL2s+8UmTJjF06FDefPPNVhsyduzYMYqKirjmmmvqnU1+9913GI1GZs2aRW5uLnv27HHpuOWzx38h74Ny5kaoy+kSakmKonDw4MErMsFVTU0Ne/fuZcKECfV+n0lJSZw4cYJbb70VlUrFV1991ervz8X+zj777DPi4uIa7frpCKRrpY0xmUwkJiZiNBova6IqrVbLggULmDFjBg888ECrBMH27dvx9fVtcGfloEGDMBgMJCcns3LlSu6+++4rfoNGaWmp84aqrVu3otPp+OSTTxg4cCABAQFN3uSUlZVFWload9111xWttynV1dV8++23vPDCC62+r4MHD1JVVcU111xT7/XIyEgiIyMpLCzk1VdfZfLkyZd9PaIxZWVlzikEtmzZgk6n49NPP2Xw4MH4+/szbty4Rvvhjx8/zrp16/jvf/97xefMbytUSmudromLYjKZ+Oabb9izZw+LFi3C4XBwxx13EBMTw/3333/J/0Dffvtt1q9fz+LFi5vtV78Ux44dIzc3t8Gdp3a7na1bt5KWlsbkyZOdd1j+0gcffMDatWtZvHhxi/eZFhcXs3z5cvz9/et9iBQXFxMUFNRon3pFRQV/+9vfuP322xu97f9Ks9vtvPTSSwwaNIiZM2e2+v5KS0vZsGED06dPbzB878iRI2zfvp0hQ4YwaNCgVhkVUlJSwvLly503tZ1VXFxMYGAg06dPbxDkVVVV3HvvvYwePZoHH3yww41WOUuCvI2ora1l3bp1WCwW5805hYWFaDQaZs+efVkh/Oijj6LX63nuuefa1K3LrRnkl6KiooK8vDx69uzp6lKAuiA/ePDgZY+Pb68sFguvvvoqlZWVPP/88w1GDXUkEuQdgMVi4fXXX2fMmDFcffXVri7HadmyZSQmJvLyyy+3q0eOiStj27ZtbN++vd54945KgryDUBQFm83Wps7I7XY7dru9w91OLVqGxWJBq9V22O6Uc0mQCyGEm5OPMiEuQFVVFdvit7q6DCEaJUEuxAX46MMPee5vf2t2pkIhXEWCXIjzSE9LZ+Gnn5Gens7nn33m6nKEaECCXIjz+M+CBVRWVgLwyUcfk5GR4eKKhKhPglyIZiQmJLBu3Trnz6Wlpbzx+r9dWJEQDUmQC9EEi8XCmwveaDB39rq1a0lMSHRRVUI0JEEuRBOW/vADB/bvb/C6yWTiP28saJWHIwhxKSTIhWhEfn4+7779Dna7vdHl+/bt54dGHs8mhCtIkAvxCw6Hg88//YysZh6V57Db+fD9DyjIz7+ClQnRONfPVCREG1NVVYXNbuP6uXMAyM7KZtfOnQB0CgvjqjF1zwZVoSIlJYXQMw+kFsJV5BZ9Ic5jzeo1/PGhh3A4HFwzcSL//eRjV5ckRD3StSKEEG5OglwIIdycBLkQQrg5CXIhhHBzEuRCCOHmJMiFEMLNSZALIYSbkyAXQgg3J0EuhBBuToJcCCHcnAS5EEK4OQlyIYRwcxLkQgjh5mQaWyHOQ6PRYDQacTgc6A0GV5cjRAMyjW07tWf3blauWOHqMtqFstIy0tLSAPDz86N7bHcXV+S++g8YwNwbbkClUrm6lHZFzsjbqZTkFL78/AtXl9EubU+UBy9fqukzZzD3hhtcXUa7I0HezkX7+jAyIgzkDEi4UHppGXvzClxdRrslQd7ORfn4ML1Hd/kqK1xq8+lMCfJWJKNWhBDCzUmQCyGEm5MgF0IINyd95KLNqrVYWXH0KDtPZ3IsvwCbw4FRp6N/eCcmdO/GpJ49UF9m37/ZZuPrfQdYdfQ4FSYTUf5+vDZ9GsHeXqQVFxPl549eq2mhIxKidUiQizapoKqKv676kWMFhajAGdhmm434k+lsOZnOuhMpvPCra/HQ6S5pH4qisPLIMT7eudu5D4vNjslm5dWfNpNWVMy/Z82QIBdtngS5aHNsDgcfbd/FsYJC4sLDmD96JP06dUKv1VBlNrMvK4f3Erez/XQGn+zawwNjRl/SfuwOB/uzcwC4d/RI5g0ZhFqtJr+ykp2nM/A3GlvysIRoNdJHLtqcSpOJfdnZhHp78cy1kxkcGeE8K/Y2GLi6e1f+8evr0Gk0bExOxdHIzclmm43S2lpKamqoNJuxOxwN2iiA2W7DoNUyIDwMtfrC/zs4FIUKk8m5/XNrsNjtlNbU7dtss9HUzdNWu925jZKaGqqaqFOI85EzctHmOBQFq92OUafDQ9v4P9EugYH8dfI1mGw27A4Hak1d0FvsduJPpvH9wSMcKyjAarcT4u3FyJho5g0ZTJS/HyqVivTiEr7Zn8TJomKsdjtf7zvA2uPJ9OkUyr6sbCpMZkw2GwvitxIbFMSNgwayKeUkB3JyuXnQQDalnuS7g4cprqkh1NubmwYN4Ia4gaQXl/DRjl3sOJ2BXVEYHBnB70ePpF94mLN2u8PB3sxsfjh8mEO5+ZTV1gIQ7uvDiOho7ho5jCBPT1QqFQeyc1h7IpkAo5E7hg2p1410KCeXNceTCfCsW2Zo4r0S7Z/85kWb46XX0z0omL1ZWSzcs5c5A/oT6uPdIKgm9+xR72er3c7CXXv4ct8BVECItxd6jYbS2lpWHj3O7sws/jXj13QJDKCouppVx4471008dRoAk83GhpRU599/PJ7M0KhIbogbwOG8fFYdPUZZbS0J6acI8fYmys+PvMpKPty+CxUqlh4+Qo3FSpS/H2W1JvZn5/Dsj+v5Yt7NeOr1KIrClpNpvLxhE1a7nSAvLzoH+GN3KBRVV7PsyFEKqqp4Zfqv0KhUdAsMJLmgkNSiYnw9DNw8KA6VSkVRVRVvxG8jtbiYJ66ZgE4j/fgdmQS5aHM8dDrmjxpO5o9lLEk6xLoTKXQPDqJvp1D6hIbQPTiYUB9v9L8Ir0O5eXyzPwlPnY77Ro9gSs8eeBkMpBUX80HiThJPnebtbYm8Ov1XdA8O4rmpU/hq337Siku4c/hQugQG0snHm0GR4XywfSdeej3zR44gzMfb2e1idTjYmZHBI9dczcTYWDRqFR/v2MXX+5N4f/tORsZE8YexY4jw8+VkUTGPrlhFYVUVB3NyGdWlMzUWK//bfxCr3c5vBsdx8+A4Aj09Mdts7M/O4cV1G9lxOoPSmlqCvb3wNXrwx6vH8tiKVXy99wBDIiPpGhTI53v2caKwiOt692RSz9jLHr0j3Jv0kYs2qW9YJ16dMY1Z/friYzBwMCeXL/fu569r1nHfku95csVqEtNPOfumHYrC5tSTmO12bho0kJn9++F1ZsrZbkFBPDFpAmG+PuzKyCSjtIxAT0+u7t6VIC9PNGo1gyIjmBDbjT6dQhnVOQYPrRYfg4GxXbsQFxlRLyjHdu3C9L598NTrMGi1XNe7F956PXqNhvkjRxB5pvsmNiSYUZ1jcABF1TUA6DQapvXpxfUD+nHrkEEEenoCYNBqGdU5hriICBSgtLbGub9+YZ24fegQSmtr+WTXbtadSGbl0eN0CQzg7pEjpEtFyBm5aLu6BQXy2MTxFFfXkFNRwbG8fA7k5JJaVMTuzCwO5ORy3+iR3Dw4DrPNRmpRMZ46HSNjohucoQZ6ejI8OorlR46RXlJCt+CgS64rLiKi3s96rRbDmeAP9vaqt8znzIeJ4myrYdaAfgCYrFZyKyoorq6hzGTiREEhR/LzAbDY7M5taNRqrh/QjwPZOew8ncm+rBxUKhX3jR5JuK/PJR+HaD8kyEWbF+TlSZCXJwPCw7hpcBwFVVVsTz/N2wnb+WTnbsZ164K/0YjZZsdDp8XXo/GHPwR71YVsmcl0ybWoAD8Pj0aXadTqC+riqDSb+S7pEFtOplFuMlNeW4vZbm92HS+DgfmjRnBk2UoqzWam9e7F6M4xl3IIoh2SrhXR5izcvZfffv0/EtNPNbo81NubWQP6MalHd2qsVo6cmVVPpaobEWJtIhQrTWYAjNpLu4Gobh8qNBcxTPGXzDYb/4nfxie79pBfVUWQp5HRXTpz/YB+PDlxAsOjoxpdT1EUjhcUUGu1ApBcVETpmdEuQsgZuWhzPHU6ThaXsDEllZGdY5oMToNWi0Jd/7heoyHMx5vkwiLSS0rpGlS/68TucHCisBCATj7erX0ITTpVUsq65FRig4N4ZsokQn288dTpnNMMr09OaXS9lKIiPt21Fy+9nr5hoWw/lcHC3ft4+OoxDS76io5HzshFmzO6SwwBRg82n0xnSdJBzDZbgzbH8wvYkJyKXqOhb6dQtBoNw2OicSgKX+09QEFVVb32K44c5Vh+Af5GI71DQy+oDrvDgULLPgmxqKoau8NBmI8P0f7+eOn1zhBfdfQ4R/LyG6xTa7HwzrbtlNbWMm/oIJ64ZgKxwUGsOnqMbWnpLVqfcE9yRi7anEg/P+4cMYz/xCfwXsIOVh45zsjO0YR4e+NQHBzMyWNvVja1Viu3Do4jyt8PgGtiu7P62AmO5OXz+yU/cG3PHvh7GtmXlc2ezEysDgfzRw7HU99814pGpUKtUpFZVs5nu/fSL6wT47t1bZFj6xwYgJdeT8Kp0/ztx3UMiAjHZLWxLyuLg7l52M7c2VlzpgvFoSh8e/AQ+7KyGRodyez+/fDU6/n9VSN5evU63k3YQZ/QUML9fFukPuGeJMhFm6NSqZjVvx8+BgMfbt/JqdJSTpWW1mvjpdNx3+iR3DpkkPOM1sdg4O9TJ/PKxs3szcrmy337f26v1/P7q4YzvV+f8z4tKcDTkz6dQtmUmsY3+5PoERzEmC6dW+TYIvx8uWfUCN5L2M6WtHS2nHNGfU33bgR4Gvn+0BFOl5YxPCaa4/kFfLZ7LwGenvzp6rF46vUAjIiJ4Vd9evHDoSN8uGMnT02eKDcFdWAS5KJN0qrVTOnZgwndu3OyuJhDObnUnOli6RUSzJCoSPQaTb1QVqlUhPv6smDWdJKLijiQnYPJZifSz5dRnWPwPqcbA+pmO5zaqydxERGE+fw8jE+jVvPU5ImM69aVnIpKQr290KjVdV0+nkY6BwbUq9XXw8C8oYMwaHUNxnSPjInGy2CgV2iIc59zB/ZndJcYtp/KoMpiwddgYGhUJDEB/uRVVhLs7U2wlycORSGnooLbhw2lb2gonQN+3q9apaobs+7ni9lmp9Jsdo5JFx2PSmlqRh/h1hZ99TXP/PWvjI6M4L4hA+WZncKlNp/O5NOkw0yfOYMFb74p/x5bmFzsFEIINydBLoQQbk6CXAgh3Jxc7GznciorWZOajnRJCldKLS1zdQntmgR5O3e6opLTFSdcXYYQohVJkLdT3WO7c/Mtt7i6DCHqGRg30NUltEsy/FCIC1RbUwMqFUZ5KLNoY+RipxAX6OOPPuarL75wdRlCNCBn5EJcgMyMTGZMm4bBw4NlK1cQFhZ2/pWEuELkjFyIC/D6P/9JVVUVxUVF/OeNN1xdjhD1SJALcR67du5k7dq1zp9XLF/B3t27XViREPVJkAvRDJvNxmuvvIrVYnG+VltTw4J/L8VkLekAACAASURBVMByzmtCuJIEuRDN+G7JtxxMSmrw+p7du1m5fLkLKhKiIQlyIZpQXFTEh++/j+PMwx7OZbPZeP+99ykqKnJBZULUJ0EuRCMcDgcff/QxGRkZTbZJO3mSr774Ahn4JVxNglyIRmSczmDjhvX4+fvjHxCAh9HDuczLy4vw8HDCw8PZtPEnsjKzXFipEDKOXIhGVVZWkpeX5/z5f4u+4bNPPgHg1ttu449//pNzmY+PD/ozj2ATwhVkrhUhGuHj44PPOY9/Cw4Odv7daDQSFBTkirKEaJR0rQghhJuTIBdCCDcnQS6EEG5OglwIIdycBLkQQrg5CXIhhHBzEuRCCOHmJMiFEMLNSZALIYSbkyAXQgg3J0EuhBBuTuZaEeICeHh4EBgYCICnp6eLqxGiPpn9UIgLUFpaSklxMQB+/v71JtESwtUkyNup6qoqysrLXV2GEPUYjUYCAgJQqVSuLqVdka6VdmrD+g28/q9/uroMIeqZNHkyz/79764uo92RIG+nampqyMnOQa1RozNoQU6AhAvZrQ5sFhulpaWuLqVdkiBv56L6hDNq9lD5KitcKm3fKXavSnJ1Ge2WBHk7pzPo8A3yliAXLuXh7XH+RuKSyThyIYRwc3JGLkQHUlZYzvpFW6ipMjXbLjgikMk3X43BKA+VdgcS5EJ0IGXFFRzafgKLydJsu+DwQMbNHClB7iYkyIXoQLr0juapj/9AbbUZgOyTuXz9z+9RqVU8+u4DQN0AJy8/L3R6iQd3Ib8pIToYD08PPDzrLj5WlFSCSoVKpSIgxM/FlYlLJUEuWpTNaqOqvOaC2up0Wjx9jS06osZqtlJdWYveoMPTx9hi270QNVW1WExWvHw9z3s2a7c7qC6vRqVW4e3rhUqtQnEoVJRWoVKBT4CMNBIXToJctKjMlBw++OsXF9S299BYbn/yBjRaTYvtPyUpnc//sYQh1wzkpodntNh2L8TaLzexc+1+7v7bLfQY1K3ZtuXFFbz/1Of4+Htzz/Pz8PA0YDFb+M//fYTOoOOxd+9v0fdFtG8S5KJV6D30BIX5N9smILT55R2NSqUiNDpY+qbFRZN/MaJVdO4dyd1/u9XVZbgVvYee+1683dVlCDckQS7apMrSKgpzilGpVASHB+IT4A2A3WanILuYmooajF4ehEYHo9U1/s9YcSiUFJRRVliO3kNPcEQgRq/G7zC0We0U55ZQVV6NWq0mMMwf3wAfVOrG+6lrq00UZhdjNVvxD/YloFPT3y4URaGssJyS/DLUGjXhnUMv8t34WUVJJcV5pTgcCgEhfvgH+6LWNLyvz2yyUJhVjLnWjIengdCoYHQG3SXvV7RtEuSiTaiprOWzl/5HryGxhEQGsu7rLRTnlp7pbghi9n2/IiQqiNWfbeTormRqq0wYjAZ6Du7KnAd+3SCgbVY7W5fvZNuKnVSUVKEzaAmJDGbKb8bRe1iPehcS8zIKWfvFJk6fyKKmshaVWoV/sB9x4/py9ezReJ5ze7miKKQkpbPhm3hy0vOxWWz4BnozduZIbFZ7g+OymK1s+jaB/ZsPUVZUgVqtJrpnBGNnjmikrYWvXvserU7LrY9ej0arIT+zkO/eWcWA0X3w8vNk07fbKM6tC3K/IF8Gj+/PxJvHoT/THaMoCqdPZPPjFz+Rk5aHxWTFYNQT3TOCuLH92L3hACOnDmXoNQNa6lcn2gAJctEmOOwOMk5k182QV1COb6A3/Ub1ojC7mLzThaz6dAO+QT6kHT5N595R2G12Th3N5FDicTrFhDL55nH1tpd2+BTHdp8gJCKImF5RFOWUkJOexzcLljH/uVuJ7hEJQGF2MV+99h2FOcWERgbTtW8MNpuN3LR8tnyfSHlxJXMfmOY8689Jy+Obfy+lpqqWTlHBhEQFU1ZYzoZvtuLp0/Bsf/2iLWxdvhOdXkdsXFd0ei3ZJ/NY9uFarGYrPv7ezraKQyErNbfembPFZCXjRDZ2m4Pi3BJ8g3zoO7IX5UUVZJ3MZcvS7YREBjJ0YhwABVlFfPnKEqrKawiJCqJTdAhlhRWkHc4g40Q2FpOVPsN7OrevPfMBIBdW3ZsEuWgVp45l8fpD7zfb5p7n5+Eb6FPvtZz0fIZPGcR1t12Dl68nJfllfPbC/8hKzcW3pJLfPnUTMT0jcTgUdqzZw8pPN3BiX2qDIK8ur+Hq2aMYf/1oPH2M1FTW8tOSbSSs3MXaL7cw/7lbsdvsbPougeK8UibeMIYx00fg6WPE4XBQVlDOsv+uJSn+CIPH96fnoG447A5+WrKN2ioTo6YOYcot4/Hy9cRUY2LH2v2sX7SlXg0FWUXs+HEvHp4G5j02l659o1Fr1BTnlvL9e6tJP5Jxwe9nTloeo6cNY9JNY8/s08y6rzeTuGoPh3ccJ25cP7Q6LRu+2UpVeQ3DJsXxqzsmOtvuXLuPdb+oDyAsOoQ7nrwBnYd0u7gzmTRLtAqr2UphdnGzfxx2R4P1PDwNXDN3DF6+dc/FDOzkT5d+0SiKQtzV/encOwq1Ro1Wp2HA2L5AXWj/UnjXTkyYe5VzLLmnj5Ept4zHN9CHtCOnqSqvobbaxNFdyYREBDr3qVKp0Gg0BIUHMmHuGDQ6NUnxh3E4HJhNFk7sT8M30Jspt4531ujh6cGYXw+na5/oejUc35uK1WxjxLWD6RHXFa1Oi1qtJiQyiKm3TbioPmtvfy/GXz/qnH0aiBvbF72HjsrSGhx2haryGk7sTcXT18i0OyfVazt62jC69YtpsF2NVkPvYT3o3r/LBdci2h45Ixetomu/GOY9NqfZNo3dsOPpYyQgtP4dhmeH44VGBdXr29brmw7Crn2jG/SbG4x6onpEcGTHCQqyitAbtJiqzVhMVl659+0G23A4HFjNNorO9EkX5ZRgs9gI7xqGl0/9BzDr9Fq69Ikm9eAp52t5pwoAiB3QtcG2g8MC8Q/xbbL+X/L292rw7cXobax3obcopxiLxUrnvtF4etd/b/UGHV36RJNyIP2C9ynchwS5aBVanQZvP6+LXs/Lz7PJOxov5k5Ho3fjd3WevXBpNVuxWWxAXf98dUXTd6OaaszgULCarQBNTiRl/MWc28211+q1zX4QNWiv1TQ4ftWZW+vPMtfWTYRl9DQ0uo1L+X0I9yBBLtqUlrot/WyI/lJ1RS0Aeg8dZx873nNId+586qbm61KrnBcGzTXmxvdpqb/Ps+1NjbS32+3YbXY0TQydvBRnz87NTcxsaKpufupa4b6kj1y0S1knc7FZbfVeM9dayEzORq1WERwRSEhkEHoPPXnp+VSWVqHWqOv9KS0sZ3/8YcqLK4C6Obp1ei2ZqTlUV9bW27biUMhMya33WnjXTgAkH0hDOfupcUZlSRVlZ7bbUkKjg1Cr1WSfzG0Q5na7g1PHslp0f6LtkCAX7dLpY1ns2ZjkPEs211pY9dkGKsuq6TUkFh9/b4zeBmIHdqGitIq1X22mqqwKxaHgcChUllax8pN1LPnPCuKX7URR6i4a9hnRk+ryGtYs3EjtmYcz2Cw29scfJuVAWr0a+o3shd6gY9e6/aQcSMNus6Moddve8L94TNWNn9lfKh9/b3oN6U5VeQ3rvt7s7GqxWmwkxR8m9dCp82xBuCvpWhGtIj+jkO/eWXnedr++awoeTfTpXg6fAC9Wf7aRgwlHCQoLIPtkHjmn8vHy9WTyLVcDoNVqmXTTWDKSs9m3+RCnjmfSuVcUigKZydkU55USEOrH2BkjUKtVgIopt1xN+pEM9mxMIjMlh5ieEZQWlJORnI2PvzfFeT8/JT4oLIAJN1zF+kXxLHx5Cb2GdMfD00BGcja1VaYGfeotYcpvxpN2+DQJK3eTfjiDyO5hlOSXcfq4nI23ZxLkolVUlFSxe8P5n5o+9bZrgJYP8p6Du2H0NrJz7T7SDmeg1WmJ7BbG9N9NIeJMlwdARLcwbn/iBlYv3Eh+RiH7txwG6s6+u/aNZvrvphAUFuBsHxweyB1/uZHlH60l91QB+RmFeHgaGDYpDq1OS/zSHfXqmHD9VYCKHWv2cnRXMioVBIYF8Os7J7H5++0tftzhXUO5+U+z+PHLTeRnFZGTno/eoKNb/874h/ixa91+tFr5It7eSJCLFhUaFcxtT8y94PZnz8Y9PA3c9sTcBsPmAIZNiqNrvxgiu4fXe13voeO2J+aiP2c8dlRsOLc9MZegsAA6RYcQN7YvxXmlGL08iOwe5nygwlkqlYrOvaO457l55GUWUlZYDoB/sB9hnUPR6jQN2kf3iOCe524jKzWHmqpa/IN9Ce/SieK8UmJ6RRLe5ecPCrVGzTVzr2LIhAFkn8xFpVYR2S0ML19PfAJ9UKtVzuGVWr2WG/8wHZVajVpdF7ZB4QHc9sRcjF4N3xffQG9u/MN0dAa9s86S/DK6D+jM71++g5y0PEw1Zrz9vIjoFsbmbxMAMBhb/oNTuJYEuWhRXr6e9B/V+6LX0+q1Ta4X3qVTvXA8S6PVNFjHN9Cn3mtNrdvY/qO6hxP1iw+Lpug96s5yzxUaFUxoVHCDtiqVCv9gX/yD648b7xFXf3y5RlN3c865PL2NTb4vBqOhQfuv/vkdOr2OGx6aTuzAn7dfXVFD6uHTqNQqQqOCzn+Awq1IkAvRjoR36cTenw7y7dsrGTV1CN7+XlRX1rJr/X4yT2QT3TOC0OgQV5cpWpgEuRDtyKSbxlGQVcTp41kNLnBGdO3ErHuvu+KPwBOtT4JciHYkINSPu57+DckH0jh5MB1zrQWDUU/3AV2Jjesid3e2UxLkQrQjKpUKTx8jg8b1Y9C4fq4uR1whEuTtXNbxXJa/uRaQJ7IL16mtlOkBWpMEeTtnrjZT0MJ3EAoh2haV8stJIES7kJuTQ2pq6iWvryDn8GelpqYSHRWFwaPl78TsaEJCQujVu3eLTY4m6kiQC9EMq9XKTXPmMmP2LO763e8kgESbJF0rQjRjyeLFHDlyhMzMTKbPmEFoaKirSxKigQ5xRm4ymbBYGp+j+VLodDqMRhmL294VFhRy0w03kJlR92zN39xyCy+8/JKclYs2p0Ockb/77rt8/vnnLba9G264gaeffrrFtifaHofDwcf//S9ZmZnO175dsoTf3HoL/QcMcGFlQjTUIYI8JyeHpKQkdDoden3jj+m6GAUFBS1QlWjLjh45ynfffVfvgRA2m41/vPQyn33xOTqdPHVetB0dIsjPmjdvHvPnz7/s7YSFhbVANaKtslgsvPfOO5SWlDRYtmf3btasXs3MWbNcUJkQjetQQR4dHc2YMWNcXYZo47Zs3szmTZsaXWa323nnrbe4evx4/P39r3BlQjROZpgX4hxlZWV88N77mM1N30SVlpbG5599dgWrEqJ5HeqMXIjzOXr0KAaDgWHDhwOQlnaSkuK6LpYuXbsSHFw333hKcgplZWVyVi7aBAlyIc4xfPhwPvrkY+fPTz7+BKtW1j179O7585l9/ey6BSoVBoM8aUe0DRLkQpxDp9PVG5Gi1f78X0Sv12P09HRFWUI0S/rIhRDCzUmQCyGEm5OulTbk7M0nv5w14ewT1Ztap7lZFlQqVbO3lJ9v/cvd//nWh7q7KJvT3DFcyP7P9x40t/8LmcHicupvifXd/d/A5f4Oz13/fMfaXkmQu9DZf4Amk4mMjAyyMjMpLi6mvKwMk6luIv6effowbuLEJrdRVFjIssWLm1w+cMgQho8e3eTyrIxM1q5Y3rA26qax1RsM3NHMTVSpyclsXr++yeW+/v7cNG9ek8sBPvvgA2w2W5PLp82+nojIiEaX2Ww2Pvvgg2a3P+c3txAYFNjk8s3r15OanNzoshPHjzv/brbbqbFaG7T5cfnyerfy/9KQESMZMnxYk8t/WLyY4sLCJpePGT+ePv37N7n8+JEjbNu8ucnlk667jq7duze5fP+ePezdubPJ5ZHR0fxq5swml9fWmvjqnAvEv9S9Z0+umTKlyeWlJaV8t+jrJpcD/Pbeexu9m1atUmOprWHZ99+DSkVkZCTdY2MJDw9Hp9N1mFCXIHexfXv3snvXLqxnAkKlUqHWaNDq9KACCyryqpt+ukqFyYq+mXmyTQrNrl9maXz9s0Gu0+nJbW7/Vnuz+1efZ30AncEDtbbpIC+1WFE1sQ27zdbs/gGKzRbMzdRgVWua3IZao3H+vdxsbfRY7BpdszXUKjT7Hqi0za9faVeaXb/S5mh2/XKrvdn1ax00u75do212fYvJ1Oz6VpW62fWrTZbz/g7zqk1odfZGl5UVFVFZXY3NYqG0pITDhw7h7e1N7z59GDBwIN7e3u0+0DvE7IePPvoor7/+Os888wzPP/+8q8tBURQcikKV1caJ5BQO792Nb0AgfsHBePr44uHlhcHDA5VKjd7D47xdE6L1vPrUX/hp9SoAHnnuBa6VW/PbHIfdTkVpCSV5eeRnnKaitATbmRMjg8HAkGHDGH7mvoD2Ss7IrzCHolBjtVFiMmN1KARFxzA+OsbVZQnhttQaDf7BIfgHh9C1bz8qSkvJSk0mJz0Ns8lEVlYWw4YNa9dn5RLkV5DN7qDYZKbK2nQ3ghDi0qnUavyCgvALGk3n3n1JO3yQmB69KDNZ8PPQo26nYS5B3sosFgtWqxWtwYOCGhOW84xQEEK0DG8/PwaOGQdAidmC2W4n2NMDbTvsqpQgb0VWq5WErdvIz89nwNhxePj6ubokITqsapsdR3UtoV7Gdhfm7eto2hBFUUhKSuLIkcMUFhZQkJvr6pKE6PBq7Q4KakzY29k3YwnyVpKbk8PePXtwOBx06z+QyO6xri5JCAHU2uwU15opLilp0Wf5upIEeSuwWCzs3LEDs8lEWJcuxA6MQ6OVXiwh2opTGRks/eEHkg4cOO+dte5AgrwVpKelkZWVhZevH32GjkArz3cUok0pLSigurKSffv2UdjMXbXuQoK8hZnNZg4mJaEoCt0HDsTo7e3qkoQQvxDdsxc+AYGYTSaSDhzAbm/8rlF3IUHewqqrq+ueHBMSSniXru36JgQh3JXew4PuAwYCkJqaSllZmYsrujwS5C3MPyCAa2bOot/IUWi10qUiRFukUqkIiYjE298fm9VK8okTFzTTZVslQd7CbA4HaqMX/sEhri5FCNEMvYcHnc5Mj5GdldXsDJxtnQR5C6ux2nDfz3UhOpbgiEjUajVFRUWYzWZXl3PJZExcC1IUBZPd/YcyCdFRePv7ExgWTqC/X73ns7ob9628DXIoClYJciHchofRk5HXXoePTovBYHB1OZdMulZakALY3fiCiRAdlU1R3LpLVIK8BSmKBLkQ7sihKLjzf10J8hZis9nIOH2akvw8V5cihLhI7hziIEHeYswmE6uWL+PQ9gRXlyKE6GAkyIUQws1JkAshhJuT4YdCNMNyzk0i8et+xGSqJSwikp59++IfFOTCykRLqa6oIDMnGyU8jJjO7vkgdAlyIX7BZrOxZe2PLP9mESnHjjlf352QwO6EBDQaLR6eRoaMGs0Nd/yW3gMGuLBacbkqSks4uCMRe79+EuRCuDtFUcjNzOTNl14gadeuepMoqVQqUKlAUbDbbVRXVrJ1/Tp2xm9h1i23Mu/e+zB6erqwetGRSZALQV2Ipx47xnP/9ycK8+qGkPr7+zN95gwmT5lC99hYAgICyM7O5uCBJFYsW0ZiYiIWs5kln31KYV4eDz/9DF4y/7xwAQnyFuTh4YFOr3d1GeIS5GZl8o+/PEFhXh5qtZop117LU888TWRkZL123bt3p3v37sy6fjaJCYm8+PzzpKaksPnHNRgMBh586ikMBg8XHYXoqGTUSgvx8vbmrnvu5appM1xdirhIFrOJz95+i+zTp1Gr1dz5u9/x+hsLGoT4udRqNWPHjeW/H3/EgDN95OtXLGfLjz9e0LzWVqsFq9XaYscgOjYJctHhHTt0iMSfNgEwbtw4Hnr4D3h41D+rXrFiBXfccQc7duyo93p0TAwvvfIPOnXqhMPhYMnChVQ087QZh8PBqZQUFvz97xw7mNTyByM6JAly0aHZ7XbWL1+O1WrB29ub+x96EF9f3wbtjhw5wpdffsnp06cbLOvbrx+/ufVWADLSTnI06UCDNoqiUFxYwBfvv8tj99zNxlUrsVosLX9AokOSIBcdWlVFBQf37AZg8JAhxA0adEnbmTb91wSdGVe+M34LDsfP0xnXVFezfvky/nLffXz94YfNnrGLK0+nNxAYEoqvr5+rS7lkcrFTdGiVFRXOUSqjrhqNTndpz1nt3LkzXbp0obi4mPSUVMwmEwYPDw7v28tXH37AwT176oU7wMkTx9FoNJd9DB2J3W4n5cgRrDYbBg8Pps6ajV9AwGVtMzg8nIgZs4jwdt/hoxLkokMrKy5yBmzXLl2drx89epT09HTnz8ePH0dRFPbt24f3OUMM+/TpQ7du3dBqtYR26gTU3Q2akZbGyiWLiV+3DlNtTaP7/viNN1rjkDoMv4AARo2fcNlB3h5IkAtxxrln4x999BELFixo0Oa1117jtddec/78r3/9i0ceeaRBu4SNG9i2YUOTIS5ES5IgFx2aj9/P/aLnXsgcOnQot99+u/Pnw4cPs3//fsaNG0eXLl2cr/fp0weoG41SWlICgFan48a7fseYSZP54r132Z2wrdF9x/bpg6+ff4seT3vnsNs5fGA/Nhm6WY8EeQupqa7mm0WLMPj4MGrqNFeXIy6QX0AgQSGhFBcWsHPnDu6487eo1WrmzZvHvHnznO1eeeUVDhw4wIMPPsjNN9/cYDs52dmcOnUKgKjOnfH08qJX//48++8F7IyP54v33+X0yZP11rnj/gcYPHJU6x5gO1NbU8N9N86ltKjI1aW0KRLkLURRFKqqqsCNn8TdEXl5exPbtw/FWwrYt2cvaWlpxMbGXvR2ftr4E/n5+QAMGjnSeRFTbzAwdvJkBo8cyYrF/+O7zxdSWVEB1J256934gb+uYLfZ6ua9EfXI8EPRoen0eqbNmYtKpaK4uJgP33v/ou+4zM3J4bNPPkFRFELCwhg2+qp6y1UqFd6+vvzm7vm887/FTJo+A7WMVhEtSIJcdHhxw0c4uziWLV3KFws/x26312ujVqvR6/Wo1fX/y5SWlvLXJ/9CRkYGALNvnUdgSEij+1GpVHQKj+CxF17kXx99QnhUVCscjbhYiqLgsNsbDA91JxLkosMzenpy9x//hH9gIHa7nX+++ipv/HsBlZWVznlTHn/8cUwmEzfeeCNQd3Hz9KnT/PGhPxAfHw/AkFGj+dX1c8771V+lUtFv8GAiot1z7uv2Ji/jNMsWfkL8pp9cXcolkyAXgroRJI889wJ+gYFYrVbee+cdbrnxJr7+6iuys7OprKikurqasrIyDh86zL9efY0b58whMaHuYdvdevWqm8bWx8fFRyI6IrkyJ8QZI8aN4y8vv8L7/3yN02knOX78OH97+hn0ej2RkZEYjUZKSkrIO3MnKNRdsBw+Ziz3P/44nSKani1RiNYkQd5CVCoVAYGB6Ly8XF2KuAyDR43i5fffZ8X//semNWsoyM3BYrHUu8sT6kajxHTtysxb5nHNddfJ6BPhUhLkLcTTy4vfzLuNjMpqV5ciLlNQSCh3PvQHZv7mFl57+in2n5m6NrZPH7r36k1U5870HjiQnn374mF03/k5RPshQS5EEwKDgwkIDHL+POs3t3LtrFkurEiIxsnFTiGEcHMS5EKIDs1gNBIW05mg4GBXl3LJpGtFCNGhBYZ2ImxyuFvPRy5n5EII4eYkyIUQws1JkAshhJuTIG8h1VVVfPjuO8Qv/8HVpQghOhgJ8hZkt9tR3HgGNSGEe5IgF0IINydBLoTo0Ow2G7XVVZhMJleXcskkyIUQHVpBdhY//m8RO5p4SLY7kCAXQgg3J0EuhBBuToJcCCHcnMy10kI8jEZmz72BIsvFPYG9NVVVVvLd5wux2WyuLsVtpR4/7vx7/Pp1ZJ5Kb6a1uBBqtZq7/vCwq8toVyTIW4hGoyE8IgJrG3qwRG1NNd8u/AyLxeLqUtqF3du2snvbVleX4fY0Go0EeQuTIO8A1GoV9/1ugqvLEB1cVZWZr5fscHUZ7ZIEeQeg0ah55A/XuboM0cHl5ZezZOlurFa5+7mlSZALITq00KhofnXLbUT5+bi6lEsmQS6E6NA0Gg16nQ69Xu/qUi6ZDD8UQgg3J0EuhBBuToK8hZjNZrZu2ULKwQOuLkUI0cFIkLcQm9XK4YNJ5KSddHUpQogORoJcCCHcnAS5EKJDs5rNlBUVUVlR4epSLpkEuRCiQyvKy2XT8h/Yu3uXq0u5ZBLkQgjh5iTIhRDCzUmQCyGEm5Nb9FuI0dOTW26/g7xas6tLEUJ0MBLkLUStVuPv70+Fpu3MRy6E6Bika0UIIdycnJGLS5KVXcSkmS+SmV3cbDudVsPihX9m6qS4K1RZ4265+02WrdrD9vUvEjegMwAWi43X3lzGfxdupLCokq6dQ1j97V/oHB3i0lqvtEkznmfPgTQObf8nMVEd69jbCwlycUkUBUxmK7UmCwaDDpWqqXbKlS2sCRaLjVqTxVmPoigsXLSZZ15ajFqtQq/T4lBAq9W4uNIrz+x8b1xdiWuExXRm9l3zifD2dHUpl0yCXFyWsFA/9m99jbBO/q4u5aI4HA62bDsKwDOPz+WZx+ai0UhPY0ekUqmcf9yVBLlwiaoqExVVtSgOBaNRj7+fJ2p140Fqs9kpr6jBZLKiVqvw8/XEaNQ3+R/PZLZSVl6N3ebA19eIt5dHgzYKUFNrxWDQMWZkr0ZD3Gq1UVZeg8ViQ61R4e/rhdHY9MMHzGYrJaVV6HQaAgN8UKtbJhisVhsVlbWYTFYADAYtvj6e6PWN//dVFIXqGjPlFTV4e3ng5/vzmWZtrYWy8mocDgV/f088jYYWqVG4lgS5uKJMZitfLd7KB59uYP/Bx/5kRwAAIABJREFUdGw2B107hzBz2jCe+r/rCQ3xq9c+PaOAf7y+lB83HCAzuxiDXsuIobE8eM9Urp8xAr3u53/CDofCnv0nefn1H9i45RBV1WaGxHXlpWdvweH4+TmRyam5vPT69+w9kIbVauNfb63g6yXb+OP90xg0oAsOh0LS4dO89uYyNm45RGFRJR4eOkYN68Ef75/Gr6cOQXemC2b3vpO8+9Fabrr+Kpav3sMnX20iKMCbOTNGUlNrZtq1g5k7c2S9D511PyWx4sd9PPnnWUSGBzpfLy2r4pmXFhMVEchjD89ErVaRuCuZN95dzfbdyWTnlAAQ3smf8WP78vSjc+jbO8q57YWLthCfcIwH5l/Ln/6ykIQdxxnYvzOfvnM/A/t1Jj7xGK++sYzN245iNlu5amRP/vXC7W2m+0tcOgnyFmIymdi4cSMOvYG+w0e6upw2yWKx8fyr3/Kv/6xAr9cS2y0crVZNUXElb763hu27klnxvycIDa4L85STedx81wIOHDpNWCc/+veJxmK1se9gOrff+zYvPH0zT/xplnP7Bw6mM+e2f5GTV0Z4J3+6dA4lN7+U2+95i6BAb2e7/MJyPl8U7/x53U8HAZg7axSDBnRh09bD3H7f2+TmlRERHkD/PtHU1FrYmnicxJ3J/D979x0dVbX2cfw7LZNeSQVCIAmh994JIAgiIKCIqGAF2/WKlWvFel/BrhcsgAiIBQSk915DJ0DoEBLSSJ1kJtPO+0dwdEyoBoYhz2ct1iJz2nMm8Js9++yzzwdv3su/xvRDrVZxOjWbabPWcSgljeSUs8TGhJObZyAgwIvvf1zH8ZMZDL7zz38PFouNb6evZs6CbbRvU5fhQzo6lm3amsI336/itRfuQq1WsWlrCnfc8wGFRSaqRwXTqEFN7DY75zLzmT1nM8dPZrJszjiCgsrObcv2I0yduZaDKWc5ciyd+gk1yM8vRqNRs3ZjMsMe+pTcPAPVI4MJCPDm2IkMBo2YgI+3tMrdnQR5JbFZrRw/ehTfwECoQkGel1/Mg2O+xFOvK7fMx1vP+28Od4wCWbsxmU8nLaF+vRpMeHsEnTvUx1Ov4/jJTCZ8toDJU1fy8ZeLeP+N4ZjNVt7+cA4HDqby1KO9efaJvtSuFUaJ0czm7Sk89fwU3vrvrwwe0Ja42hGYSi28M2Eu5zLzuX9YZ958eSi1a4Vx4lQmb77/KzN/2eCoq0FCdebOGMv/fbKApD0nePWFu2jWOIZWzeuQm1vEuLd+JDOrgIdGdOPVFwYTEx1KXn4x3/+4jnFv/cjbH84lsWtjmjaq5djnrn0n+ei9B3nswR6cPJNFVEQQm7YeYWvSEc5l5hMVEQRAZnY+m7amgALrNiYzbHAH1Bda1PMXJ6EoCnfd2RZFgf9+Mp/CIhMjh3dl/H/upkZUCBaLlaTdJ3joqUkk7T7OwZQ0OrZLcNShKApHjp1j4U8v0bpFHIePpFE9KphnXppGXn4xTz3ahxefvZPqkcGkHE3nhddm8PvSneh0Ve8i761Eru6If6TUbGX56n0sWLKz3J8lK/dQZDABZQEz4+cNlJZa+HD8ffTq3sQR/rG1w/nwnfuJqRXGzF82YjCYSE3LYfHyXTRvEsO7rw+jTkw4KpUKH289vbo14c1XhmIyWRwt66zsAlau3U+dmHD++9Z91K4VBkCdmHA++eBB6sZGOmoOCfaj/+0tiYwIQqNR06FNXQb0bUVEWCB7k8+w58BpWjWvw4R3HqB2rTBUKhXBQb78a/TtPPxAInn5xcz6ZaPT+5AQF8Wwuzrg4aElIS4KP18vhg5qR2mplWUr/3xq1LakY1isNlo2r8Pm7UfIzTUAkHO+iJVr99OhTd0L5wrDh3Zk9EM9efs/91AjKgQAnU5L+zZ1uaN3cxSl7IPh7+7o04L2bRLQajU0ahDNydPZbN95jBZNY3jzlSGO7pyE+Ci++exxQqu579PjRRlpkYt/JDjQhylfjiE4uHwYaDVqR6Aaik0cPJwGwCvjf+Tt/5vjtK6iwPncIuyKwqkz2ZzLyuN8rgFQ0XfI++X2XWQwoSgKe/afAuDw0XSKDCYG9IsnIsx5BE1wkC8d2yVw+Gj6Zc9n7/5TmM1WenVvQlCgj9MytVrNsMEd+PKbZRw4lOq0rFZ0NafuG4BB/Vrz0hszWbhsF6NGdMdqtbFoWdmHU58ezXj9vZ85cSqTaiF+bNmeQnpGHs8/3R+9hxaVSsW9Qzpx75BOlJotnDiVSXZOIZlZBew9cJqFS3cBZdcc/q5Z4xinn5MPp2I0munSoQFBgc41hocF0LZVPMtW7b3seyNuXhLk4h/x8NDStlX8ZYcflpSUYig2YbPZ2bXn5EXX8/LyoNBQQlZ22ST/53OL2Lg15aLr5+eXTYlQUFAClIV2Ra50eKShpGyunD+6Qv7uj9dzzjs/hMDLU19uFE1UZDDdOjZg3aaD5OUXoygKazce5JnRfejYNgGbzc6aDcm0aRnH70t34uOtp//tLR37MZrMTJ66kuk/riMru5CCwhIMxabLnsPfR6Jc9r0Jc6+ho5Ut51w6KUk7SIiPo227dq4u55pIkIsbQq1WoVGrCAn2Y9a3Tzu6Cv5OpVJRq2Y1zl64Y/Su/m14+z/3XHS/fwwH9LjQx2u8yKRlpWbrFdWpuTBk0Gg0V7g8N6+sK6SiIY0VuWdwR5as3MOGLYfw9fEkL99Alw4NiK4RQmztcDZuOcz9w7qwen0yPbs1JvLCB47drvD6uz/z8VeL8PHWUzcukg5t6xIU6EPblvGs3ZTMD7M3XOboZf58byo+pyt9b25VFrOZ/PM5GCLCXV3KNZMgFzdEUKAvNaqHcOhIOlabnQb1ajgtt9vtrFp3gLg6EXh766kbF4WHTsOp09lUrx5MgJ/zXXdp6bkcO5FBi6a1AYitE4FWq2HH7hMYTWa8PJ3HeycfdO4KuZi6sVGoVLBlx1EsVptjmCGU9fPv2FX2cO3oK7yNv3+fFnh761m2ai8B/t7ERIfSsF4NPDy0dGybwIq1+1h2YWjlf9+6D92F4ZS5+QY+m7SEqIgg5v/4IrExYfj6ejrG2m/ZfuSKjg8QFxuJRqNm285jmM3WcuPPkw+dueJ9iZuTXOwUN4RWq6Fvr2YoisI7H87hbLrzHC0Ll+2i/z3/pe/Q98nPLyYmOpTGDaPZd/A0k6eswGL5s9VYYizlmZem0mfIe0z4YiEAMdGhtG5Rh+RDqUyesgKb7c9x4/MW7WDDlkNXVGezJrWIighi6co9LFichP0vY6yPn8zg/Y/modVo6J14ZXPHBAb40DuxKSvX7mftxoP06NrowpQGKnp2b0xq2nmmzFhD9chgOv1l9ElGZh5mi5VqIX40rFcdf/8/b5hasCSJ+UuSruj4AI0bRFOvbhQbthzip7mbsdv/PKfvZ61jX7IEubuTFnkl0el0NGvRApNa3tKLGTakE9//uJ4t24/SoddrDBnQlojwIPYdOMUv87dhtdi4/54uBAb6oCgKLzxzJw88/iX/GT+bpSv30qNLI0rNVhYt38XufScJCvTloRHdgLKhjq+9MJhBIyby0huzWLPhIB3bJbAv+TQLFifh7a3HUHz5ueJrx4TzxCO38dq7PzP8kc+4q38bmjWOIT0jlxk/bSQ3z0Bi14YMuqP1FZ/3/fd0ZuB9E/DyPM9b44Y6Xm/SsBYhwX5s3JrCYyN7Ui3E37EstnYEYdX82bP/FL0GvUu/21pgNlvYvO0Iq9YdwHzhg81guHyfebUQP1585k4eeWYyj/3raxav2E3zJrXZsesYC5fuIjjIl7x8mX7ZnUnqVBIPvZ72HTtxpkj+Q1xMeGgAv3z/HA8/NYn1mw/x8VeLHcs0GjUvPzeAl/9ddoOPSqViyIC2mEotPDduOms3JrNmQ/KFZVCrZig/TvmXY4y6SqXitsSmfPf5aJ5+cQoLliSxYEkSKhWMuKczGo2aaTPXXbZGtUrF2Kf6AyremTCX2XM2M3vO5rJlajVDB7Zj0sePoq9g3PzFJHZtRFioPzqthg6t6zpej6kVSqP6NcjKLmD4kA5O0wR46nV889njPDjmS9ZvOsT6TYcc9fXo3pgOresy/v/mcCglDUVRLjlPiEqlYvjdnSgsMjJu/I+Oc1KpVDz9WG9Op+aweMXuKz4fcfORIBfXJMDfm5eeHYDNZsPX98ou/EHZmPG1i95g554TrNt0ELPZSlhoAL26N6FmdecLoBqNhgfv7cqAvq1Yu/Egh4+UDV9s3qQ2iV0bOfVfl62v5r67O9G7RxPmL04iO6eQls3q0LVjA9ZuTCYhLorIiLKLiWqVihH3dKZ9m7rE1Ylw2o9er2Pc2EGMGtGNlWv2k3YuFx9vPX16NSf+b+s2ql+T99+4l4T4qIues4+3J198+HDZ3/9ykdRDp2Xc2LsYMqAdrZrHOm2jUqm4s28rDm7/iCUr9pCVXYC3l55unRrQpFEtsnIKCAr0ISTED4vVhodOy8B+rYmJDqVNy7hyNWg1Gp56rA+D72zLvEU7KCgsoUPbBDq2TWDB4iQ6tE0gMMCn3HbCPaiUKjDRwvPPP8/EiRN57bXXGD9+/HU7jsVmv6la5NmZGTzU/w4UxcahpPdcXY6o4jIyC+h554dYLHYW77y2bwDG4mIeGngnudnZBAQFMWHKNKJr1/5HdZ07fYpda1bRsGFDevTq9Y/25SrSIhdCVGkBwSE069CJ2pEy/FAIIdySt58fgQH13frBEjL8UAgh3JwEuRBCuDkJ8kpiNBqZP3cuezeuv/zKQghRiaSPvJLYbTbS086WzUcuhBA3kLTIhRDCzUmQCyGEm5MgF0JUaZlnU1n60yy2bLyyaYFvRhLkQogqzW6zYSwuprT08pOq3awkyIUQws1JkAshhJuT4YeVxMPDg/YdO1HMxacTFUKI60GCvJLoPDxo1qLFTTX7oRCiapCuFSGEcHPSIq8CFEXhfK7B1WWIKi4vv5gq8PgDl5AgrwKsVjv3jprk6jJEFWe12jCbrajVmsuvfAMFhYbRtkcvYsKqubqUayZBfgtTqVR4+/qiM5vJzDFe1bbSbnL2R0vyUs/GFJfn5eOLRnNzBbmntzf+vjFUc+P5yCXIb2GBQcF8MPkbFMXu6lLc3qpFi1Dsdnr27+/qUm4B8mFY2STIb2FanY7a8fGuLsPt5efmsmHFcmw2G8MeeQT/AJnhUtxcZNRKJbFaLBw9kkLW2VRXlyIq2W8zZ5CZnk5OZiazv/vO1eUIUY4EeSUpLS1l5bJlHEra7upSRCU6efQIC3/52fHz4jm/cvLoERdWJER5EuRCXITdZmPGpEkYCgsdrxmLi5n+1VfYbDYXViaEMwlyIS5i55YtbK9gatMdmzZW+LoQriJBLkQFjCUlfP/lF5grmNrUYjbzw1dfYSwpcUFlorIV5edzeM8uTp084epSrpkEuRB/oygKS3+by7HDhy66zokjKSz+9Ve5U/EWYCjI59CunZw6IUEuxC0jNzubJXPm4KHXo/f0dLqBRaPVovf0xEOvZ9GcX8jJzHRhpUKUkXHkQvyN3suL599+x/Hz3Bk/sGbJYgD6DR1KrzvudCzz9HbfuwHFrUOCvJJ46PUk9uxFgV2+ars7Xz8/6jZs6Pg5KCTE8ffQ8AinZULcDCTIK4lOpyOhfn2Zj1wIccNJH7kQQrg5CXIhhHBz0rUihKjSQsIj6NLvTqJDglxdyjWTIBdCVGkenp74ensT4MbzkUvXihBCuDkJciGEcHMS5JXEYjazb88ezh4/5upShBBVjAR5JTGbzWzasJ7j+/e6uhQhRBUjQS6EEG5OglwIIdycBLkQokoryD3P3i2bOJpy2NWlXDMJciFElVZSVMSJQwdJO3vW1aVcMwlyIYRwcxLkQgjh5uQW/UqiVquJiIxE7eW+t/kKIdyTBHkl8fL2ZtCQoTIfuRDihpOuFSGEcHMS5EII4eYkyIUQVZqXjy/RcXWJiIx0dSnXTPrIhbgKC2bPZvPq1a4uo8qy2WwU5uUBUFpaiqGo8B/vM7BaNcK6dCXKjecjlyAX4ipkZ5wjO+Ocq8sQgIeHBz4+vq4u46YgXStCCLekUqlQqSXCQFrklUZRFKwWCzabFY1G3tZbVd+hQ0ns09fVZQhAo9USFhHh6jJuCpI4laSkuJjvvv0W38BAug4c7OpyxHUSWb0GjVu2dHUZQjiR7yVCCOHmJMiFEMLNSZALIaq0vOwstq9ZRfL+/a4u5ZpJH7kQokozlZSQdvIEgd5eri7lmkmLXAgh3JwEuRBCuDnpWqkkGo2G2nViUfR6V5cihKhiJMgriaeXF3369ZP5yIUQN5x0rQghhJuTIBdCCDcnXStCiCrNx9+f+MZNqFmzhqtLuWYS5EKIKs0/KJhqrau59Xzk0rUihBBuToJcCCHcnAR5JbHb7RQVFmIqkeGHQogbS4K8khhLSpjx/TS2LV/q6lKEEFWMBLkQQrg5CXIhhHBzMvywCrDbbKxfsRyT0ejqUtzSqWPHHH8/cuAAS3+b68Jqbh0arZY2nToTEBTk0jpKjUbyC/LxqhZCtWohLq3lWkmQVwF2u51vPv6InMxMV5fi9jasXMGGlStcXcYtwdPLiwnfTXV5kOdmZbJrzSryGzakR69eLq3lWkmQVyFqlZpGNRLw1fu4uhRRhSmKws7T7vs0npuRBHkV4qHV8UCHIdQJreXqUkQVZrPbGD39FYpt0tVXWeRipxBCuDlpkVcSbx8fRj3yKGnF0soQQtxYEuSVRKVS4enlhc5qd3UpQogqRrpWhBDCzUmLXAhRpfkFBdGodVvqREW6upRrJkEuhKjSfP0DCG4cJPORCyGEcB0JciGEcHMS5JXEZrORlZlJYV6uq0sRQlQxEuSVxGQ0Mufnn9i9bo2rSxFCVDES5EII4eYkyIUQws1JkAshqjRjsYHU48fIzMhwdSnXTIJcCFGl5efkkLRuDYeSD7i6lGsmQS6EEG5OglwIIdycBHklUqlUri7hpmCylNLvg/vp/tZQTmefdXU5QtzyZK6VSuLj68vop57mTFGxq0u5KVhtVqw2q6vLEKJKkBa5EEK4OWmRi5uGoiiUmI0YjMXYFQWVSoWvpzfeei/Uqn/e5jCYijGYilEU8NZ74ufpi1pd8X7tip2CkiJKLWYCffzx1Omv6BhWm5X8kkIsVit6nQ5/Lz+0mor/m9nsNscx1CoVvl6+eHt4XrSLzmKzkmfIR61WE+QTgEatcVputlrIM+RjVxT8vHzw9fS5cC4KBpOBYpMRrUZDoLc/Oq3uis5HuAcJcnFTMJiK+WXL76zcv5GU9ONYbBa0ag2xETH0a9GTu9v3x8vDE5vdxieLviHXkM9zdzxOiF+Q034KjQa+WTkDtVrNI4n34eflg8lcytzti5m3YylHzp1AURRqhkSR2KgTI7vdTbBvIABGs4nvVs9Co9YSFxHDRwsnk1WQQ7u6LflwxGt4673K1W0ylzJlzWzMVjN3trqNGRvmsnL/egpKiqjmF0ynem14tt+jBPkEOLZRFIXT2WeZuvYnNqXsILvwPDqNloSoOAa37UffFomOD46z59P53/LpdKrflmPnTjJjw1w8dDoe6jaMezsN5MulU/Hz8iWxUSe+XDqVDYe3YbXZqF89jrH9H6dZTCMWJC3nhw1zOJF5Gl9PbxIbduSZvo8S6h98HX+j7kOj1eLrH4CXt/tOYytBLlzOrth577fPWLRrFd4eXkRXi0Kr0VJSauR4xik+WfQ1Xh567m5/Jxq1BqPZxMJdK2kW05Ch7fs77evQ2SPM3Pgb/Vr0wMfTi1KrmY8Xfc3PW37Hy8OT2PAYNCo1OYZcvl/3M8mpKUx84HUCfQKw2qysP7SNguJCFEVBrdEQXa06hcYitH9r/f7Barex8fB2zhvy2HVyP0fOnaB6cAQhfsGknT/HvB1LKbWY+eC+cY5tUtKOMfaH8ZzNPUeIbxB1I+tgtlpIST/G+F8/4mTWGf7V72G0ai35JYUs3LWSE1lnOJmVSlRQGCVmI1abBbvdzuoDm/Dy8GTxrlWcN+RTOyyaklIjB9OO8uYvHzG4bV8mr5xBeEAoseExpOdlsGDnCvQ6T14e9NRFz6sqCategxpD7nbr+cglyIXLHUk/wZLdawjw9uO9e1+hdWwz9DoP8osL+XXrQr5a/j0r921gQOs+6LUe3N48kXk7lrF0z1qnILfZbSzdsxa1SkXvpt1Qq9SsP7iVudsX06BGXcbe8ThNatVHo9ZwOvssU9bMZsHO5fyyZSGP9rzPsZ+Mgmxa1mnCu8NeJtDHn8yCnMt2RWTkZ6FVa5h4/+u0iW+B3W5j6Z41jP/1Y1Yf2EhuUR7BfkEYzSa+WDaNtNwMEht14pk+D1ErtAZGi4nV+zfy4e+TmLlxLl3qt6V1XDPH/g+nHePRHvfxUPdh5JcUoP9LV8/RjJPUi4pj8qP/pX6NeHKKcnl22uskpx7hm1WzGHPbgwxp1w+dRsuCpOX8d/6XbD6ShMFYTKCPfyX+JoWryMVO4XJhAdUYfdv9PJI4nE712qDXeQAQ6OPP7c0TCfUPpshUjNliBqBJdH1qhdZg96kDnM0959hPriGfrUd3UjssmibR9bErdhbuXInNbuflAU/Sok5jtBotKpWKmLCaPNvvEcIDQlm8exVGs8mppiHt+hEZFIaXhycxoTWuaGjp/V2G0LFeG3QaLXqdnv4tb6NWaE2sdhvp+VkAZOZns+P4HmqERPLygKeoHR6NWq3GR+9N/1a3Marb3djtdn7ZttBp38G+gdzV9nY8PfREBIY5ddUAPNH7QRrUrItKpSLUP4TbmyWioFC/ejzDOw7ER++Nh9aDHo06E+pfjfziAhlVdAuRFrlwuWDfQB7veT+KonC+KI9Co4H03AyyCnPYcXwvuYZ8/L38sCt2AHRaHXe06MEni79l+d51PNR9GABJx/eRnpfJw4n34u/tR5HRwKnsVEDh3d8+Q6d1/udutysUlBRSaiklqyDH0VeuVWuIDY+5qnPQqDU0ik5wek2tVhMeUI1T2akoigLAsYxTmCylNK3VgPDAauX2071RR/63fDrHz51yej3IJ4CwgPLrA+g0OhrVdD62r1fZhc66kXWcvk14eujRabQoKFd1fuLmJkFeSYwlJcydOxetjw+tuvd0dTlu53jGab5YNpWU9GMYzSbyigsc4VeR25v3YPLKGSzbs5YHu96NzW5j+d61+Oi96Va/PQDFpSWUWkqx2e0cSjt60X1p1BpKzEaCuRDkGu1FR5pcjFajQacp3/3y95ElRktZyz/UP6TC/QT7BqFRa8grKXB6Xa/TX3Tkjr+XL9oKjg2g0UgfeFUgQV5J7HY753Ny8LXK19WrdS43gzHfvkxmQTY1Q6JIiIolxDeI2mHRBPsG8b8V35fbJiIwlPZ1W7L+4DYOpx0j0MefHcf3Ui8qloTqcQCoVWpUKhUhvkFMfPANgrwDyu0HQKVWExEQitlqvq7n+UdNUHb3a0WKjAbsih1vj/IjZC5Go1bLXcVVnAS5cLlfty0msyCb+zsP5tGe9+Gp83T0k5/IPIPFaqlwu/4terH6wCZW7d9ARGAoBlMxvZp2dWwb7BtIqH8I+84cQlEUYsJqOm1vsVnYcWwvMWE10es8bkiQ16pWHZVKxYHUw5RazI5a//DH0MvIoPDrXou4dcjFTuFyGfnZqID4yDoEePs7wq3IaODbVbPIKy6ocLuO9VpTzS+Y1cmbWHdoK0E+AXSt386xXKvR0imhDYqi8MXSaZw35DmWKYrCsj1reWbqqzz3/RsYTDdmaoUaIVHUDq3J4bRj/Lp1IXa73bEsqzCHScu/x2a3O52HEJcjLXJx3ZRaSvll68JyIyz+0CS6Pq3jmtEspgELd63gv/O/5HDaUar5h5BdeJ61yZs5d2G0R6nFjNVmc9per9NzW9OuzNr4G6k56XRt0K5cS3Zgm9tZvHsVO0/sZfinT9KrSRcCvf1JPnuEdQe3ADCgVR98PX0oMhquw7vgLMDbj4cT7+X1nycwceEkNqXsoFlMQwqNBpbsXk1OUS6x4bW4q23f616LKJNx5jR71q+lQYMGdE9MdHU510SCXFw3pVYzP6z/9aLLR3W7h9ZxzRjU5na2Ht3F6gObmLVpHlA2k6S/py//uv0RVu5fz8msMxQZDeXu5BzSth+zNv6GgkKfZt3L9RWHBYTwyai3eX32/7E/9bCjHhUq9DoPHu95P8M6DqjkM784lUrF7c0SsdptfLRwMptTktiUsgMo6+tuX7cl4+9+AS8PzxtWU1WnKAo2qxX73xoK7kSCXFQ6rVrDI4nDKS41XnK9P4bMaTVaJtz/OvvPHGbXyf0ARFeLomWdpgR4+9EoOoGDZ49WOGQuLKAa/l6+eOu9aV+3VYXHiQmtwfSnP+NAagq7TuzHrtgJ9Q+mbVwLqv3lNnW91oMRnQdTWFJEyIWhiJfjodUxvNNA8ooLKhyJMrB1H1rHNSMiMNTxmkajYWDrPnRv2JHtx3aTlpuBh9aDVrFNiYuo5TQ6JTwglH/3e4xqfuVvp9dptDzUfRg2uw291rmvvWGNBP7d7zEa1Kjr9LpWo2Vkt7spKTVWOOWAcE8S5JVEpVLh7e2Nh/7KJle6lWk12nK3zl+OSqWiSa36NKlVv9yyNnHNaRPXvMLtNhzaRqHRwKA2t+N3Yez0xTSqmVBuvPVfeeg8uLPVbVdVt4dWxx0te110ec8mnS+6LMDbj15Nulxy/6H+IYzsdneFy3RaHYPb9atwWXxkbeIja5ffRqNlUJvbL3lM4X4kyCuJt48PDz78iMxHfgPkFRdgMBWTVZDDZ0umlN0V2fLqAliIW4kEuXA7qTlpPDxpLOYLwxJHdbunwtanEFWFBLlwOzVDomhftxXZhefp1aQL93Yc6OqShHCpCoM8Ly+PpUuXsmQirSHMAAAgAElEQVTJErKystBoNCQmJjJw4EBiY2Mvu9PDhw8zbtw4OnTowHPPPXfRyfuFuBZBvoF8NuptV5chbhE6vZ6Q8AgCAq7sAvfNqFyQnzx5ktGjR7Nq1SpsfxmOs3jxYj799FOmTJlCz54Xn0ukuLiYF198kd9//x1/f5kiUwhxc6sWEUlUv/5uPR+5U1PZYrHw7rvvsnz5chISEvj222/Ztm0b8+fPp2/fvqSmpvLQQw+RnZ1d4c7sdjuff/45S5YsuSHFCyGE+FuL/MyZMyxatIiwsDB++OEHWrRo4VjWo0cPevfuzebNm1m2bBkjRowot7MVK1bw4Ycf0qBBAw4ePHj9qxdCCOHcIrfZbMTHx9OlSxeaNm3qtKKPjw/9+/dHURROnXKeKxng3LlzvPLKK8THx/PSSy+h/dvczxaLhR9//JGpU6dy7Ngxp2U2m41FixYxdepU9u3bV1nnJoQQVYJT2sbHx7N06VIsFkuF8xifP38elUpFzZrOs8iZTCZeffVVTp06xbx58zCby88ip1arSU5O5t1336VHjx7MmzcPX19fAJYvX87w4cMJCAhg5cqVlXl+N0xJcTGzZs3C08+P9n0qvklDCCGuB6cW+R93JwYElJ/kKDc3l5kzZ+Lt7U23bt2clv3www/MmDGDN954g06dOlV4II1GwwsvvECHDh1Ys2YNX331FQDp6em88MILlJSU8MEHHxAfH19Z53ZDKYpCSXExZpPp8isLIUQluqJxgSaTiccee4z09HTGjh1LdHQ0UBZee/fu5dVXX6Vv3748/PDDlxxq6O/vz2effUZAQAATJkwgKSmJcePGkZyczMiRIxk8eLBMkC+EEFfpskFuMBgYOXIkc+fOZdCgQbz66quOsM3Ly+OJJ57Ay8uLjz76yNFVcjEqlYrmzZvz9ttvk5OTw9ChQ5k1axYNGjTgnXfeQS/zlAghbjC73Y7VanEabu1uLnlnZ1ZWFo899hi///47AwYM4IcffkCnK3s2oM1m48MPP2Tnzp188skn+Pn5kZOTA0BBQdnzFk0mEzk5OXh5eeHn5weU9ZWPGjWK5cuXs2DBAry9vZkwYQLh4Vf2RJQFCxZw4sSJqzrJnTt3XtX6QoiqIzP1DLvWrKJhw4b06HXxCdBuZhUGud1uZ//+/YwZM4YdO3YwcuRIPv/8c7y9/xwwX1xczPLlyyktLWXMmDGMGTOm3H5++uknfvrpJx588EGmTZvmtP8/PhCgrOtGUZQr6laZMmUK8+fPv6qTFEKIW1m5ILfb7SxZsoTRo0eTm5vLa6+9xssvv4yHh/N8x2q1mujoaIqKisrttKSkhPT0dHx9fYmIiHBqbdtsNqZNm8bcuXOJjY0lKyuL//znPzRv3pyYmJjLFtyjRw9CQip+AvnFbN++nQMHDlzVNkII4S7KBfnGjRt56KGHsNvtTJo0iXvvvbfcmHAAX19ffvvttwp3unLlSvr3789dd93FlClTnC6A7t69mzfffJPw8HBmzpzJnDlzmDhxIq+//jpff/01np6XfjLK008/fbXnyPPPPy9BDpitFqZv/hVf/aXn7RbielIUhSKTAbWu/BBncW2cEjo7O5sXXniBrKws/vWvfxEbG0tSUlK5japXr15uLPmVyM/PZ+zYsRQUFPDBBx/Qtm1bateuzZo1a5g9ezY9e/ZkxIgRbjnJlt7Tk9vvuIM8i/3yK7uIXbGzL/WQq8sQAgBPnTyhqLI4BfnmzZsdwf3pp5/y6aefVrjR66+/zltvvXVVB7LZbEycOJH169czYMAARo8eDUBYWBjvvvsuQ4YM4T//+Q/t27d3y7HkWq2WmNp1UN+ED5ZQq9U8+u/nMBkv/eg1IW4kjVZLWGSkq8u4JTgFudFopHfv3pfd6HJBGxISQu/evWnSpInjtfT0dFJSUhg8eDDjx4/Hx+fPr/eJiYmMGzeO9evXs3LlSmJjY92yVX6zUms0dOsjj/e6VhaLmbkzZjD0wZHy71LclJyCfNiwYQwbNuwf77R58+bMmzfP6bWaNWvy888/V1yEVsvLL7/Myy+//I+PLURlW7d0GdO//IJasbG069LV1eUIUY40L4S4hML8fGZ9Mxmr1crUzz6V7qlbUGhUFD3vGkrrdu1dXco1kyAX4hLmzpxBWmoqAKeOHWPxnDkurkhUNq3OA7/AQKfuXncjQS7ERZw+fpxFv/wMiuJ47eepU8jJzHRhVUKUJ0EuRAXsNhuzvvmawvx8p9fzzucw4+tJLqpKiIpJkFeSYoOBSV98zvr5c11diqgEO7duYcvaNRUuW714MYf3ywNQxM1DgrwSKYqC8pev4cI9lRQXM3PyZEovMrd8qdHI919+gcViucGVCVExCXIh/kJRFNYsWUzKgf2XXG9fUhIbViy/QVUJcWmXnMZWiKpGURRCQsN45tXXADAUFTH9qy8xl5aiVqsdrwP4VfAkLeF+rFYLllIzRo0KXx/vy29wE5IgF+Iv1Go17br+edPP+ewsfvz2G0eQ337XYBdWJ66H7LQ0t5+PXLpWhBDCzUmQCyGEm5MgF0IINyd95JXE08uLu4beTXapDEkTQtxY0iKvJBqNhvCICPyDg11diqgkFrOZtDNnsFmtQNljEA/t21fubk8hXE1a5EL8TW5ODisWzGfd8mVkpqc7Zjy02+28Mvox/Pz9ada2HX0GDqJ+06YyR7lwOQlyIS6wWq2sWbKYGZMnkZmWVuFdusaSEowlJSyfP4/1y5fRvW9fRj7xFIFX+UBwISqTBLkQgLm0lBmT/8ecH37AeuHW++hatbit9200btKEWrVqkZ+fT8rhFNauWc22rdswGY0smTuXk0eO8p8PPyQsQh5b5o7Ca9Sk3/D7qR7g5+pSrpkEuajy7HYb82bN5Jdp07Db7fj5+fHkM09z7/DheHt7o1KpHOt27NSJB0Y+yL69exn/5lskHzjA4f37eP+ll3jzk08JCApy4ZmIa6HWaPDQ6dDpdK4u5ZpJ556o0hRFYd/OnfwwaRJ2u51qodX4+rtvefiRR/Dx8XEKcQCVSoVOp6NFy5bMnP0jvfv0AeDg3j3MmPQ/rBcujF7JcWWCNVFZJMhFlVZqMjHz68mYS014e3vz7vvv07pNG6cAX79+PWPHjiUpKcnxmkqlwtfXl3fef48mTZsCsPz3BZw4knLJ4ymKgqGoiDk/TOfYoUPX56RElSNBXklKTSbWr1nDkb27XV2KuApHDx1k/4WAvqN/f7onJpZbZ/fu3Xz00UccPHiw3LKgoCDGvvA8Xl5emEpKWDJnDjabrcJjlZpMbF23lhceHsU3H02ksECGMYrKIX3klcRqtZJ8YD++gYHUbdrc1eWIK6AoClvXrUVRFHx8fBh6z93XNJSwZatWNGnahG1bt7F3x3aKCgoI/Mv9BDabjeOHDzPz68lsW79OulREpZMgF1WW1WLhxJGjANSoWZP6DRpc0348PT3p2Kkz27ZuIyM9naLCP4M869w5fpv5A0t/+42S4mKn7QyFheSdP//PTqKKURSFgrxcALRaHVHR0Wg0GhdX5XoS5KLKstlsjrs0IyMj8fT0BCA1NZVz58451jt9+jQAx48fZ/v27Y7Xq1evTvXq1QGoV69e2T6tVs5nZREUUo01Sxbz6/fTyEhLq/D4X0+ciKeXV+Wf2C3MbreRnpoKQHhUFJ/P/FFGCiFBLgSAU6tu0qRJvPfee+XWGT9+POPHj3f8/Pbbb/Pqq68C4KHXO143m8388L8vWTB7Nna7/aLHzMnKrIzSxT90PjOD43v3kBBbhxYtW7q6nGsiQS6qNI227L9AscHgeC0+Pp4+F4YVApw6dYrDhw/TuHFjRwscIDY21vH37Owsx9/9/P2577HRhEZEMm/mDLIzKw5sL29vx/HFlVEUheKiokrdp9lkIjs9jbCgwErd740k/4pElaXT6YisHkXK/n2cOXOGjIwMIiIiGDlyJCNHjnSs9+mnn/Lss8/y/PPP88ADD1S4r50XRr74+vsTEhqGf2AgQx54kA7dE/n1+2msXLSQ0gtztvxh9Isv0aiZXBi/GsUGA8+MGO7qMm46EuSiytJotTRp1Zq1S5eSmZnJ5o2buGvI1T/KLSMjg82bNgFQOy7O6VmeUTVr8uQr4+hxxx3MnDyZXVu3OEathIaHUyMmpnJOpoowFBa6uoSbkowjryRarZZ6DRoQUUv+Y7qT1h074R8YiM1mY/q0aeTm5l7V9na7nZ9mzyb1TNkFuG59bi93AVOj0dCwWXNem/gRL7//ATVr1660+oUACfJKo/f0pHuPniQ0d8+LJVVVtbAweg8cBEBycjITP/wQ49+6QC5l/bp1TPtuCoqiEBMfT8cePcvd1v8HL29vuvbuw8Qp0xj51NP4+LnvJE3i5iJBLqo0tUbD4AceoHZ8XRRF4Zeffuadt8ZTUFDgWGf06NHk5+czbNgwx2t2u52Fv//Oi2Ofp6ioCA+9ngfGPOF0I1BFVCoVAUFBDHvoYeo2aHjdzktULRLkosoLDArmxXffIyQ01NFVMnTQXfzy888UGwzodDr8/f3RarVYrVb27N7NM08+ydhn/01ubi5arZYHnniSdl27XbQ1/ncqtVoeSHETudLf281KLnaKKk+lUlGnbl3en/w1H4x7hRMpKZw4cYJXXnyJN197nboJdYmuVYuC/AKOHjlC5l+GE/r4+vLAE09x57BhEsxuKrJWDLVGPUKUr7erS7lmEuRCXFCrTiwTvv2OOT9MZ8mcOeTl5lJaWsr+ffvZv2+/07qeXl40atGCB8Y8SUKjRi6qWIgyEuRC/IWPrx8PjHmSfkOGsmPTJnZu3sSmVascMxq27tSZhEaNaNu5C3H160srXNwUJMiFqEBIaBh9Bg6idceO7NyyheKiIrRaLe988aWrSxOiHGlOVBKT0ciyxYtI3r7V1aUIIaoYaZFXEpvNxonjx/ENdN/5GoQQ7kla5EII4eYkyIUQws1JkAshqrTs9DRWzZvDjm3ue31LglwIUaVZLRYKc3Od5qR3NxLkQgjh5iTIhRDCzcnww0qi0+lo3rIVJnmitxDiBpMgryQeej3tOnTgTFGxq0sRQlQx0rUihBBuToJcCCHcnHStCCGqtICQEJp36kLtiDBXl3LNJMiFEFWat68fgXUDiHTjB0tI14oQQrg5aZFXATarlalffIahsOiKt1GuYz3upNRopNRkAspmuPx4/FsurujWodPpGPrgSMKjolxdituTIK8kVquVM2dSybXYCA4Pd3U5ThRFYc2SJeT85VmT4uopisLSuXNcXcYtw9PLi94DBkqQVwIJ8kpSajKxaMF8fAMD6TpwsKvLqZBWo2ZI6waEBvi6uhRRhSmKwrR1u7C6upBbiAR5FaLTqOnTtC4JUdVcXYqowmx2Oz9vPUChxe7qUm4ZcrFTCCHcnAS5EKJKyzybypIfZ7B5w3pXl3LNJMhFpen/7mTinhhP/BPj+XbF5kuuu3jXQeo99Q5xT4xn1BczsSvXd5xMkbGUNi9+SPPn/ovFaruux/qrtfuPEvfEeN6cvfiGHfNqpJ0voMHT79L7ra/KLTuddZ6CEqPj55nrdxD3xHi+uczv1t3YbTZMRiNms9nVpVwzCXJRaQwmM4UlJgpKTMzbtg/lIuGsKArzt+0j11BCYYmJktIb8x+oyFhKkbH0hhzrD1a7ncISEybLzXlpT1EUCo0mDKY/3xez1crEBau57+Pp5Bcb//K6jSJjKeYb+EEoroxc7BSVLjY8hINnMziZdZ464eUvrGYWGNiScpI6YSGkns93QYXiUkotVpbtPkSRyflDb1RiO0YltnNRVeJSpEVeSTw8POjQuTOxjZq4uhSXUqtU3NGqEcUmM6v2HqlwnR1HT5FTWEy/Vg1Rq1UVrqMoCkazmVxDMeeLisk1lGAyWyps5SuKQrHJzPmisnWLjCZstsoZEWG12SgoMXK+qJg8Q8klW6N2u50iYynni4opKDFit197DYqiUGQ0OfZl+8u+LDYbeYYSzhcVY7zIeyKqFmmRVxKdhwdNmzWX+ciBro3i+N+yjSzbc4iHerZDo/6zvaAoCguTkgkP8qdFnZoVbp9nKGH6mu0s2XWQ/WfSsdjs6HVamsZUZ2T3Ngxo0wSdtuwBHkazmamrtvHTpl0cOlt2w1ONkEC6NIjlids7Ex8ZikpV8YcFQH5xCV8v38z5omL6tmxI14ZxjmXHzmXz0YLVrE8+TlahAW8PHR3r12FMn860T4hxOq88QwnfrdrCz5t2cyorl2p+PjzUox31ql/5zWFrk4+ycEcyj/Rsx/ajZ/h00VpSc/IJ9fflvi6teH5AIufyCvlg7goW7zqI0WyhZWxNnh+QSPfGdVGrVNgVhZnrdnDgzDlGJralfo0Ip2PM2bKHLSmnGNG1Fc1q1yhXw8nM83zy+xpSc/Iwllp4b85y4iJCGdO7I/tOpzN36z7uaNWQbo3ir/i8xPUnQS4qXWSQP63jarH3VBonMs8THxnqWHYur5DtR0/TuX4sAT6e5bYtKTXz7+/msHj3IXw8PageEohGpaa4tJSkY2fYdTyVAG8vejWrB8DHC9bwycJ1+HnpqRMeAkB+sZFZG3ay68RZfn5+FBFB/hXWmV9cwovT5/P7jgMM79ySVnHRjmX7T6fz8JezOJ2dR1iAL3XCQzBbbaxLPsaWlJNMGDmIu9o1ddQ8bsbvzN26Fy+9jpiwYGw2Ox8vXEuLCsLyYg6mZjB97XaKS0uZv30/EYH+1A4PIT23gC8Wr0ev07JyXwonMnKIDPKnsMTEruOpPPn1L6x480lqVgsCYP3B4yzeeZBezeqVC/KtR04xfe12OtWvU2GQZxca+HHjLsfPv23dR92oMEYltiUlPYvpa7dTOzxEgvwmI0EuKp1Oo6FviwZsPnyCjQePOwX5zuOpZBYU0a9VQ6cW7R+2HznFkj2HqB4cwMcP3UWHhNp46LScyyvk09/XMHXNdn7bto/ExnUB+HblFnw99cz694O0iotGBRxKy+TZb+dwLr+QI+lZFQZ5QbGRF76fz8KkZEZ0bc2b9/TFR+8BgLHUwls/LSE9t4B/39GNB7q3ITLInyJjKav2pfCfmQt5f85yOtWrQ1igHyv3pjB/x35qhQbz/oj+dGkYh8liYf72/bw2a9FVv3+/bd3Ha0N7M6Jra3y99Hy9fBNvzF7CJ7+vpUlMFHNeepgGNSM5kZHDo1/NJjn1HOuSjzGia+urPtbfxUVU4/NHhjBxwWryi428NKgntcND8PMq/6Erbh7SRy6uAxU9mtZFp9WweFeyo3/Xrigs2plM9aAAmtepuKVaMzSYx2/ryL/v7E63RvF46MraGpFB/tzfrQ1+nnpyigzY7HbMVivFpWbUahUqlQqT2YJaraZhzUi+fuJefh/3GB3q1S53jEKjibHTfmPhjgM81qs97wzvh4+nh2P5/jPpJB1PpXujeP59Z3eiggNQqVT4e3sysG0TRvfuRGpOPqv2HcFmt7Mw6QB2u8KLg3rSo2kCOq0GPy9PRnRtzUM9rv7iYJv4WjzeuyMBPl5o1GqGtm9OWIAvKhWMvTORRtFRqFUq4iJD6deqAVD2TacyBPv50LdlAwJ9vPDy0NGzaQKJjeui1926bb6g0DDa9exNo6ZNXV3KNbt1fzvCpSKDAmhRpwYHTp9zdK+cyy1g+9HTdKpfhxA/H45n5JTbLjaiGuPv7YeiKGQXGCgymjiXX0hqTh7rDhyjpNRMqcWKAnjpPejSII51yce4d+I0YiOq0bhWFIlN6tIspjrVQwLL7d9qszF26m8s3nWQ9gkxjBvSu1xIHUnPoqTUzIHUcwz/6Pty+8gpMmBXFA6knuN2Y32OZeQQ6u9Lq7jyff59mtfn88VXd6NJ27q1nL6taLRqfD31qFARGxHitG6gjxfAdR+Hfyvz9PbG39eXam48H7kEubguPHVa+rRoyLYji9macpL4yFB2nUglI6+Q25rVq7BbBcouhu47nc6nC9dyMDWDYpOZrMIiLpZTEx4cyMs/LGBzykn2nEpjz6k0Zq5PonpIAEPaN+fJ2zvj7/1nt0CJ2cLS3Yfw9dRzMDWD/afTnfrGoayfGMpulkk7X3DRcywoNmK22jCaLXjrPfDU6cqtEx7od7m3qpxQf98KL9Cq1aqLvm+iapMgF9eFSqWiR+N43v9Vy5LdhxjepRVLdh0i4hKjVQCSU8/xwCfTySwwEB0aRN2oMFrHR9MwOhJfvQf/99tqp/VrhQXz3VPDOZ6Rw4q9h9l8+CTHM3JIzcnn04VrUatVvDiwh2N9tUrF2Du7Ex7oz/Pfz+ON2Yv58bmRTmGvuTAkclRi20v2Owf6eKFSqVCrVJTarFgrGG54LTfPaDWaq97mStn+wZBIcfOSIK8kVouFlCNHKbTZCY+u5epybgo1QgJpEhPFvlNpbE05xY6jp2mfEHPRVqrdbmfKqq1kFRoYe2d3Ria2w89b72jp7jh2BrviHETHzmVTWGKiRWxNGteK4snbreQZSpi3bR/v/LqMdcnHeLJPZ8f63noPnurbBbVazYq9h1mxN4X/Ld3AS3f1cqwTHxmGWq0iPbeAhKgwRz/9H05n5ZJrKCHUv2w64IhAf7YeOUlqTh41/tadk5Lumjng7XY7JSbnO2atNjtnc+QGrFuRfE+rJKWlpaxesZzDu5JcXcpNw1vvQa+mCWQXGvhh3Q7O5hbQu1n9i3YP2Ox20s4XoFVraF6nJqEBvo4Qzyk08MXidRT/5Xb+g6nn6PvOJJ769ldyL4zf1+u0RAT507hWFFqNBg+tBo3mz+OpVSq0Gg16nZbX7u5DgLcn367cwrYjpxzrNI2JIjLQn7XJx1i866DTjT35xSX867s5DPm/75i7dQ+eHjp6N6+HxWbn49/XkGcocaybZyjh84U3diImFRDs641NUdhw6LjTso2HjrPnVNoV78uuKNjt0vfuDqRFLq4blUrFbc3qMWH+auZv309UkD8tYi/eraLVaGhauzprDhxl7LTfGN6lFUE+XqTm5LEo6SBpuWWtSaPZgl2xk1A9nPAAP1LSs7jj3cnc0aoR1fx9yMgvZO6WfRjNZga1bYKnTovBVn4+l/jIUF4c1JNXZvzO+J+XMuu5Bwnw9iIyKIBRiW15f84Knv72Vxbs2E+b+FoUlphYmJTM4bRM4iND6dEkAYBB7Zryy+Y9rEs+xoD3v2ZIh+aUmi0s2HGAnBt8g5hKpaJbo3imrt7Gjxt2UlhiomVsTQ6dzWTxzmTCA/yc5k+52D60GjXni4r5bNE62ifUpn+rhjfoDMS1kCAX11V0tSAaR0ex80QqbevGUD044KLrqlQqHu/Vga0pJ9l65DQT5//ZHx7k68Xr9/Thm+VbOJ2Vi9lqx8tDzbdP3suoz2dyLCOHTxaudayv12p4rFcHhnZoftE7O1UqFcM6tWDJ7kNsSD7Gl0s2MG7wbahUKkb37oTNrjBxwWoWJiWzMCnZsV296uFMHnMP4YFl49ND/X353+N38+TXP7P7ZBrv/LIMgLAAP16/pw//+vbGPh4usXFd7uvckpkbdvLbtn38tm0fKuDuji1oGhPFuJkLL7m9t4eOTvXqkHQslZnrk1h34GiFwzjFzUOCXFSakYltySk0EPCXC4c+nnrGDkhkz8mz9GhS1ylUa4QE8tyd3alZLZA/Xg328+GXFx5m8+GT7Dx+BoD6NSPoVL8O/l6e1AwJ4kh6FgaTiQBvT+pGhbH2nWfYfvQ0W1PKukdC/H3o2SSBGiGBjuN5aDU81bcLdrviNL+Lt96D/7v/TuZu3Yu/tyeFJUb8vb3w0Gl5tn83hnVuwYaDJziTnYtKpaJtfC061KuN+m/dQ3GRoSwY9zgbDh1n78k0gny96deyrBX74sAeFd5F+Xet46J5cWAPmv9tXU+djkd6dcBqszldlAVoUacmLw7sQfuEP4NWr9MycdQgHu7VgTUHjmCzKbRPiKF1fC0OpWbw4sAejqkD/L09GXtnIgEXhjECqNVqxg5IpEWdmhw4c45AXy8Cvb1oVrsGLw7sQZu/jfJxd0X5eWSdOkVpjSji4uIuv8FNSKVUgRl3nn/+eSZOnMhrr73G+PHjr8sxig0Gvvv225vymZ1Wi4UH7+hLcd55/jfqTnnUm3Apm93OXR//SKHFzoTvphLfoMEVb2soLGRwl04AhEdF8fnMHwkICvpH9Zw7fYpda1bRsGFDevTqdfkNbkJysVMIIdycBLkQQrg56SOvJCqViqCgYHS+Pq4uRQhRxUiQVxJvHx+GjRgh85ELIW446VoRQgg3J0EuhBBuToJcCFGl6b28iIiOJqSa+w7LlT5yIUSVFhwWTkTP3kTJfORCXF8ms4Xlew9jtyv0aVHfae7vgmIjW1JOkldsxNdTT2LjeHw89S6s9sY7cDqd/WfO0a5uDLXDQy6/gbilSJALt1BsKmX8T0sptVrp3CDWEeTn8goY/tF0UtIzsdrshPr7Mv+VR4n7y3NC/ymj2cL0NdtpHVeTFrF/3p6eVWDgxw1JDG7XlBrV/tndhVfKYrWxdM8hbDY7A9s2cby+dPch/m/eKj5/dIgEeRUkfeSVxGI2s2f3LlKPHXF1KVXKjHU7SE49R1iAH4/26sBDPdoRFuBbqccY/9MS3pi92OkhEcWmUsZMms2UlVux3cCpXuds2cPo//1Eeq7zk4taxUYzuncnEqLCblgt4uYhLfJKYjab2bJxI76BgdSMq+vqcqqM01l5qFXw6pDbGNy+2UVnOvwnDKbScs/EtCtgKDVzoycqMpotWGzlnzrUrXE83RrH3+BqxM1CglxUOrvdzpH0bDYcPE52oQFPDx3tE2JoXqcGeq22XNiaLVbWJh8l6VgqarWKZrWr06l+LD56j4sGs91up9Rqw2SxolKp8NBqMVkseGi0Tg+SqIiiKJitVvacTJ61rgkAACAASURBVGPz4ZMYzRZ0Wg2t46JpFRftOK6iKJgsVqy2sgdLlFqsZetqNGVzotvtZeuYLZjMFvS6P8/NbLWy6dBJth45hYJCk+goujaKK3uI8l/OyWqzYbHZ0Gm0KCis3X+UpOOpaNQqejVNoElMdTRq9YWabY5vBRarDaPZjE6jRatRY7HZsF7Yj/Yv52+12dh3Op0NB49TbDJTs1og3RrFUz0kEPVf6rArCqUWCxq1Go1azb5T6axNPorJbKVVXE3aJ9S+5O9DuJYEuahUNrud9+es4IvF68u1YpvXrs4Xjw4l/i9f//eeSmPMpJ84lpHjtG6d8BAmjhpEh4TaFYbH3lNp9HtnsuM5mY989SMAX48Z5tR3XJG9p9J4+ptfSUnPKresUXQkX48ZRlxkKFkFRXR/7XPHwyGGTpiKp07LeyP689zU3xzbdH71U+IjQ5n3yqOE+vty6GwGT379CwfOnHPad43gACaMHET3xvGOc5qxLokXp8/nneH9WL3/CGv2H3W08ifOX829nVsyYeQgzFYr906cxpYLTzJ6d85y3p2znEmj7+auds349Pe1jj7yezq2QFEUzp7P56XpC1i5L8WpDh+9B8/068oTt3dGf+ExdsfOZdNp3CcM7dCMyEB/vlq20fEBBmVT7H735HAigvwv+d4K15AgF5Vq06ETfLZoHaH+vozo2orIoAByDSX8vGkXu0+mMXHBar549G60GjWnMs8z8rMZZBUY6Nowjt7N6pXt4/BJVu1L4YnJP/PLC6OoGxVe7jg6zf+zd+fxUVV348c/986Wyb5vJARC2HdkUdzYFUTtoyDuYlttS1uqVevjr3Vpfar1qdqnat0VENS6Yd0FBcK+73uALISQfU8mk1nu+f0RGA1JADEwTPJ9v16+Xubec8/9zp3hO2fOPfccE4lR4ZTV1uN0uYkKDSbIYibIcvKPtKPRxS9e+jc5JRUMS09h6gX9CbUHcaS8io/XbWfX4UJeXrSKv9/xE3RNIyEijPpGFw0uNzFhwYQFBWG3WkiIDKOi1oHXMIgNCyEuPBRd0ygor+Ln/3qXnJJyRvfuzpQL+mE2mVi3P5dF2/Yy69X3ef/+OxnUrUuzuF78ehWNbg93TxpNj8Q41mXl8unGnby/eiuThvRh7ICexISFHJsz3UmY3UZokI0gq6XV11nb4GTWK++z/kAeqTGR3HDJMBIiwliflcvXW/fy5MJvsNss3D1xdLO51VfuzabW4WTKsH5c0rcHh4pKeX/NNjYePMwri1bxyIzJHa5VXl1eTsGB/dR1TaXvD5hS93wiiVy0q+W7DwLw68mXMmvyd4seTxrcm2c+Xcqont2OLaCs8+o3ayioqOZP06/gt1Mu8yWIO8dfyLsrN/PAvE+Ys3Q9T9xydYvzDEhLZsszf+CXL7/Hpxt38tzPrueKoX1PGd+uvEJqGhoZ2DWJ9x/4KeH27xZquHJoX258Zg67DhdS73QRFxHGsv+ZzW9f+4D3Vm9lzm9u4cJjCzhMGtKXaX9/g8KKGj77f3eTFh8NwFMLv+FAYSn3Xj2GB34yHrPJBMDMsaP4bNNOfvXy+7yyeDUv3DW9WUKsczbyzr23M7JnNwBuHzuSIIuZd1ZuZvW+bKZc0J83f3sLc5as48H5n3LfNeOaXd8TLdq6j/UH8hjQNZF5s28j9diompnjRrFw7XZ+P/djnv9iOT8ZNYjEyO9a2aXVdfz5xincPWm0b1vf1ETum/MxGw4epr7RRWgHG9rpqKslZ99egk26JHIhAGLDm2Z/fHvFJmwWMxf26kZSVDgD0pKZ89tbfeUa3R6+3bEfu9XCRb26sfdIUbN6usVFkxARxqq92VSfYo3JH2JkrzQ+feguXB5vsyTudLkxm3RC7Tacbg9ujwf4YQnL5fGwePt+gixmLurdnawTum6SoiJIiY1k3f5cymvriQ3/bnTNqJ5pDOn23cpAuqYxdmAv3jm27uYP4TUMlu0+gK5p/GLSJb4kfty1owaycP12Fm/bx5bsfKYM+249zqhQOzdcPKRZ+WHpqUQE23E0uvB+r7tFnD8kkYt2dd2Fg3l7xWayjpbw0ILPMOs6GUlxjOyZxn9dOIjhPbpis5gpq6mjxuGkweXmqr++0mZ9XbQIahsaCba13oVwIpfHw/6CkmZDBaFpSbMeCbHoukZGUhwHC0v5cM1WCitr2Jp9hPI6BznF5RRV1RARbD+j0SiVdQ4q6+pxuj3c8PScNsvFhIVQWedolsgTo8KxntAtFHnCsm6ny+M1OFxaSYjNSr/UxBb7TbrOsPRUFm/bx5Gyqmb7IoLtRIY0f8LRbrX4+tLF+UnenXaim0wkd+mCZrefunAHFh8Rxjv33sG8Zev5dsd+corL2VdQzL6CYt5bvYWZY0fy/6ZdgdPtwVCKYKuFQd26NFtH8/uiQuzopxiF8n3ltfXc8dwCjpQ3T1DjBvbkrdm3YULn5UWree6LTCrrvmvpR4cFExlsP2Uf+8m4PF48hiLIYmFQt+Rmo0e+LzTI5utyOc6kt+8jHUo1rU1qNZta3W+zNG1vdHvOahzi3JBE3k7sdjvXXnd9p5+PXNM0usZF8fANV/KbKZeRXVzGluwjrNxziOW7DzJn6XquGTGQbvHRmHUd3Wrhnd/fccp+1/KautM6v81sZnSf7pTVNH8fhnRLRtM0Mncd5IkPFxMdGszsqy6jb0oiKTGRRIcG4/J6ueO5BWf82kNsVqxmE0EWM6//+qZmfc/nkqZpBNusNLo9lNXU07tLyzL5x1ri0bIQSocgiVy0q8827eKbbfv46fgLGdI9hQtCu3JBj67MHDuK373xER+u3UZ+eSUXZHQlI6lpdMaynVlMHT6g2c2/3JJynlr4LRf16caMiy847fNHh4Xwwl3T29z/9ZY9uL1e/jhtEjde2rzeFXsOUlpdR8ixG5c/VFRoMH27JLBo2z6WbN/PzZcNb/aaiqtqePTdrxiekcotl4/A3saIkx/LYtIZ0q0Ly3cfZNG2vVzUu3uzXzxlNXWs3HMITYM+KS1HBInAI7+jRLtavSebf6/awpMffeMbR+3xetmWe4RtuQXYrRZ6JMahaxrXXzQYXdf4fws+59ONO6l3NuI1DHbmHeX+eZ/w0brtrN2X264/94/3Q6/el01FnQNo6tv+cM027pvzH9+DPieOgQfIP6G7BppukpYe+7WgaRo/GTUIi8nEXz9czHurt1Db4MRQin1Hirl/7n9YuH47y3YdaLPb5XQVVlbjaeUJz+NxTB0xgGCblfmZG/nXVyuoPPZa9+YX8fs5H3OwqJThPbpKIu8gpEUu2tXdV4zm8827WLbrAJsP5RMREoRSUO1ooLahkTvGjKBPl6bkceMlF7B6bzb/2bCTX7/6ATFhIZh0nZoGJzUOJz2T4rjv2nE/Oul937SLBjM/cwPvr9lK5q6DWC0mXG4vFXX1hAQ1jc2ubXDhdH3Xd3y8i+S/53/Ks58uY95vbyUtPoqY0GC2Oo5w2z/n07dLAq/OupGrRwxg9d5s3lm5mfvm/IcnPvwGs0mnztlIVX0DqTGR/HHaJCym1vuuTyUhMgwNmLdsA19s3sPjN03hquEDWpQb0DWJP/xkPE98tJgnPlrMq9+swWo2UeNwUu1wkhQZzl9vmUrwWfpVEEjsoaGk9epNUnKyv0M5Y9IiF+2qe3wMH/7hZ1w7ciBWi4n8siqOVlSTnhDD/9w8lUdmTPaNgLBZzDz382k8cctU+qcmUVhZw5HyKkJtVm67fDhv33tHu85iCDCkewpv/OZmhvfoSnF1LfllVdgsZm6+bDhfP/IrJg7qTXF1DXmlFb5jbhs7ktF9ulPb0Mjh0krK6+qxms38evJl9E6Op7y2nuySchpcbqxmM0/edg1/v+NahnTvQnFV02uymk3cMHoo791/J/1Sk844/tF90rnh4qEo4Eh5FUcralotZ9J17p40mtdn3cTFfdKpcTjJL6si2GblznGj+Pi/f87gbl063MM9ZyIyJpZhl1xG776BOYYcQFOqld+QHcz999/PM888w8MPP8xf/vKXs3Yet9c4L292etxu7pg6hfrKcl668xp6J5/9lVC8XgOnx4Nx7BF6q9mM1WxqM3E0uj24PE2tYJOuY7OYm3WpGErhaHQBEGyz+uYJaXC58Xi92K2WFiNB2qKUwu3x0njsfGZdx3rsfI1uNy6PlyCLBcv3Rny4PB7fCI9gm9U3/0mj24Pb60XXNOzfiwua5pBpPMlraqrXS6O7af6WE5/S9Hi9vrldvr/P4/XidHlQKF+cx6/fiXErpfB4DRo9HpRSmHSdIIu52dOc0DT23NHoQte0FnO5G4bC4XKhoRFss/zo5O81DK77x7vUuA2efmMOPX/AQzh1NTVcf9klACQkJ/P82+8SEfXjpxC26jrJocGY2hg9db6TrhVxVphMOiEm62mXt1nMJx2rrGtaqyNbmm4Y/rDuAU3TsFrMLcZtN8VhwWZpWV/TF1Hz8pqmEWS1ENTG+ds6R/N6TW0OETSbTITZW+4zm0yEnrC9reunaRoWs6lZcm+NSdcJs7c+bl3XW7/24vwhXSvtRCmFy+XC43b7OxQhRCcjibydOOrreeOVl1n9xaf+DkUI0clI10onopSi2uGk/NhQNCH8wWsYeA2Zs6U9SSLvRJxuL3/64Nt2Hc4nxJmocjixBXXu6SzakyTyTiIiKhpvGw+QiFNz1NWhaTr2EyaUEmcm0h5KUFAQJrP/U5C7sRFHfT1hRiSRkRH+DueM+P8qirPOZDbzyDPPSCI/Qw2OBh793WzCIsJ56MmnMMtMgO1C0zRi4/3/ZGlZUSFbli2hf//+jJ840d/hnBH5RHYCmqaR2CXl1AVFqz56ax7lJcWUlRRzaP8+xk25yt8hCdGMdJYKcRIlhYV8OP8tlFKgFAteeonamtafphTCXySRtxOT2UyPjAzikluZM1QErHdff42K0lLf3wX5+Xzy7jt+jEiIliSRt5OgoCAmTZ5Cv5EX+jsU0U52b9vKsq+/OmGr4pN33+FwdrZfYhKiNZLIhWiF2+Xi7VdfoaG+5dw5NVVVvPPaqxhy81icJySRC9GKlUu+ZfvGjW3uX7NsGVs3rD+HEQnRNknkQpygqrKS9954/aTz5jQ6G1jwyss4GxraLCMCQ0h4BL0GDaFrt27+DuWMyfBDIU5QXVnBmCuuRE1qmuF54+pV7Nm+HYBhF41m4NChQNOC21UVFSR2kRvcgSw8KorYmBEkhwbuw16SyIU4QVp6D9LSe/j+rq2p8SXyoaNGccPMO/0VmhCtkq4VIYQIcJLI24lhGFRXVdFQV+fvUIQQnYwk8nbS4HDwzvy32PDtIn+HIoToZCSRCyFEgJNELoQQAU4SuRCiU3M2NFB8JJ+K8jJ/h3LGJJELITq1ypJi1iz+mh3btvk7lDMmiVwIIQKcJHIhhAhwksiFECLAySP67SQ4JISf3v0LCuplEiUhxLklLfJ2omkaNpsNs8Xi71CEEJ2MJHIhhAhwksiFEJ2arutYg4KwBPCvaekjF0J0agmpXbnq5tsCej5yaZELIUSAk0QuhBABThK5EEIEOEnk7aShoYFPP17I9lUr/B2KEKKTkZud7cTweik4coTQyEh/hyKE6GQkkQvxA6xdtoyy4iJ/h9FpuVwu3/83Op3U1tQQERXlx4jOD5LIhfgB9mzfxp7tgTvdaUfi9XrxuN0/uh5HXR1FJcXoCfF06ZLcDpGde9JHLoQISLquo5tMP7qe6vIyNq/IZN+e3e0QlX9Ii1yIH2DkpZcxZORIf4chAFtQEJHR0f4O47wgiVyIH2DgBRdw/W23+zsMIZqRrpV2pOs6mi6XVAhxbkmLvJ2EhIbyi1//hsO19f4ORQjRyUjzUQghApwkciGECHCSyIUQnZrZYiEsMpLgkBB/h3LGpI9cCNGpxSV3oct102U+ciGEEP4jiVwIIQKcJHIhhAhwksjbicPh4L23F7BxyTf+DkUI0cnIzc52ogyDiooKQg3D36EIIToZaZELIUSAk0QuhBABThK5EKJTK8zL5ZO5b7J82VJ/h3LGJJELITo9w/CiAvj+liRyIYQIcJLIhRAiwMnww3ZitdkYN2Ei1YbydyhCiE5GEnk7sVgs9O7bVxaW6IDswcFExsQATetECnG+kUTeCSilcDocGEp+LZyJCVdfzYWXXw5ARFQU9XV1fo6oY9A0sAXZMZlM/g4l4Eki7wS8Hg//84f7qaqo8HcoQvjYbDbueeQxuqan+zUOqy2I2MQkIiOj/BrHjyGJvJPIPXiQsuJif4chhE+Q3U6j0+nvMIhJTCRpytSAno9cEnknYjVbmDXuDlKikvwdiujEvIbBE58/TyNuf4fSYUgi70R0TSclKon0uDR/hyI6Ma/hxWwy0+iVRN5eZBy5EEIEOEnk7aS+vp65r7/Gmi8/93coQohORrpW2otSNDQ0YLLZ/B2JEKKTkRa5EEIEOEnkQohOzTAM3C4XHo/H36GcMUnkQohOrTj/MJ8vmMeq5Zn+DuWMSSIXQogAJ4lcCCECnCRyIYQIcDL8sJ3YgoK46uprqPB4/R2KEKKTkUTeTsxmM127dQOZj1wIcY5J14oQQgQ4SeRCCBHgpGtFCNGpxSV3YeK0G0iJjPB3KGdMWuTirKmsq2LGP37JTf+cRXFVmb/DEaJVZouF0PAIgoNlYQkhWjCUoqy2ApNuwlCGv8MRosOSFrkQQgQ4aZG3E1djIxs2bsKpm+jer7+/wwlohjLweL2+Vryu6ZhNJnTtx7c7DMPAY3gwlEJDw2Iyo+tt1+s1vLi9HnRNx2Iyo2naaZ3H4/XgMZqeKbCYzJj0tleK93i9eA0PCjBpOuaTnEcphcfw4jW8rdarlMLt9WAoA13TMJss6MfqMgwDt9eDQmHWzZh0/bRfjzi/SSJvJ263my2bNhIaGSmJ/AwppThYlMOClQvZcHArRyubFotOioznkj4j+dm4m0iMjEfTNDYc3MaKvesY1m0A4wZe0qKuNfs3sSZrExMHXsrgbk3vR375UV5e/BZrszZTXldJaFAIl/YZxR1jbqBPcg9fUtuSs5Olu1Yzecg4Plz3GZ9sXERydAIPX38vo3oOazX27Xl7+GbHCq4YPIZqRw0vf/MWuw7vR9M0Rvcewd0TbmFwWr9mx3i8HpbtXsO/V3/CtrzdeLweUmOSGT/gEu4YcwPRoZG+ch9v+IoqRw0jegzhqf+8wP7CbEb3Gs5jN9xHdnEeK/auZ/qFU9mRt5eXv32LI+WFxIXHcOPF1zLz8hmU11bw0uJ5fL09kwaXkwvSB/HrSTMZlj5QknkHIIlcnBeUUuzK38+s1/+b2oY6wuxhxIfHYChFZX01H6z7nOySwzx/5/8QEhRMaFAw7676D+sPbOHy/qMxfa9V3ehuZO7y99mTv5+fjLgCgH0FB/nd3EcoriolPLipbrfXw+Idy1l7YBNP3PgQF/cZAcD+o4eYv+JD9h45wM78fUSHRVFWW0mDq+0V3w8U5jB/xYeU11SQuWctFpOZuPBo6hsbWLVvPbvz9zH/t8+TGpMMgNvj5l+L5vLWig8BiAgOx6zrlNZWMHf5+6zYu47XfvE0seHReA2Db3euZP/RQ3y9LZOiqhIiQ8I5XF6AUrA7P4v5Kz6k1lHHZ1sWE24PJy48hsr6al5a9BYW3czS3as5UJhNaFAIJt3E5uwd3L/gL7x378vEh8eerbdVnCOSyMV5wVAGry95h5qGOq4YPIbZk39GSkwSLo+bTYe28/hH/2BLzk5yS/Ppn9qbfim96J3cg31HD3Kg8BB9uvT01ZVdcphdh/cxrPtAusam4HQ18sTHz1FWW8HPx9/M9IuuJiEilsr6KhZtW84LX7/JP796nQFdexMRHO6rZ1vuLv543e+4ZsQV7D2SRa+kHqd8HV9tX8Z1I6fw8/E3kxyVwP6jh3jw7b+SU3KYr7cu464JtwCw9sBm3ln1MSG2YH4z+U6uGjqe0KAQtuft5ulPX2bH4b08+8Ur/PXG//bVXVlfTZg9lNd/8TTd41PJLjlMzLFWO8Anmxcxa9IdzBh9DSG2YN5c9m/+tWgu/1o0l4zE7rz6i6fpl9KTQ0V5PLDgcXJKDrMuawvXDJ/UHm+h8CO52SnOCxoao3sP58ohY7n3qrtIiUkCwGq2MLr3cMb0H406NgrmuKkXTMBrePl623fzSCulWLFnHQ5XA1cOGYPVbGF73m72FRxkXP+L+eXE20mIaGqBRoVEcsNFV3P9hVdxsCiXzYd2NIupX2pvrhwyFrNuYmDXvtgs1lO+jh4Jafxu8s9IjkoAoHdyD2655L8AyCs7AjR9aS3alkmjx8Vd429h+oVTCQ0KAWBwWn+euuVPhNlDWbJzla976bhrhk+ib0pPgqxB9Evp1ax/f3DXfvxs3E1NrXuTmf8aOcXXPfPrK2YyILU3uqbTM6k7EwdeCkBxVekpX1NHV1lawoZlS9i9c6e/Qzlj0iIX5wVd15kx+hpmjL4Gt9dDaU05NQ11VDtq2H/0EBsPbQOg0e3yHXPF4DH888vXWbJrFb+adAc2i5Xahjoyd68hMSKOYd0HAbD/aDaNHhdZhdn8/q3HWpy7qKoEr+Fl39FDzfrbu8elYrcG/aDX0TupB+HBYc22JUcnAvhu3tY56zlUnEu4PYzRvYe3uImbHJ3AyB5DyNy9htySfGLDopuukabRJ7ntXwUjMoY0q8tiMhFiC8asm0mLS2lWNiIkvFlMnZnT4aAgJ5vIYLu/QzljksjFecPlcfHl1qV8vvlbiqpKqKyvps7Z9iRkMWFRjBtwMYt3rGBb7i5G9RzG/qOHyCrMYfLQsSRGxgFQVtfUis8tzSe3NL/N+mob6pr9HWyz/+AbgXZbUItjzKbm/8w8Xi+Nbhdh9hBfS/xECRFxTfcHHNW+bSbdhM3S9uLeMaGRrcar6/pJR82IwCeJXJwXDMPg9SXv8vrSd7CaLSRFJjAgtQ/h9hAGdO3D9tw9LNm1qsVxPxlxJV9uXcqi7csZ0WMIS3auQtM0Jg263NftcLyVeuul1zHhWJdCa2LDYs7Oi2uFhob32DDC1tQ569E0CDpJ4j7RiV8YovOQd76dBNntTJtxIyWNrlMXFi1UOWqYm/keMaFR/O2W/0f3+K5EBof7kvFjxc+0etygtH6kxiSzet9GjlQUsnr/RtLiUnxDDgHS41LR0Kisr2FQWr8WrdMj5YU0uJ0kHGvBn20hNjsx4dHk5RRQUFFIl2NdL8d5DYN9Rw+iazrx4efuy0UELrnZ2U5MJhNx8fGERUb5O5SAVFJdTqPHRUJkLIPT+hEdGulL4mv3b2LlvvWtHhdksXHFkLGU11Xy0bovyS8/yrgBFxPxvX7qwd36Ex4cytJdq9l4aBtKKd++8tpKHnnvf7nr5ftZvmft2X2Rx9gsNkb0GIzH62HOsveoqq9utv+DtZ9xsCiXuIgYeialn5OYRGCTFrk46xpcDXy9bVmz5Pp9A1J7kxKTSLg9jD35B3hgweNc2mcULo+bbbm7WL53HY7GhmN1NR/LrWkak4eMZe6y93h/7acE2+xc1ndUszKpsclcO/wK5q/4iN/P+zNXDB7DwK59qKivYvH25ew/eojeyT0Y1n3A2bkArbj6gol8tXUZa7M28/NXHmDq0PGEB4exav8GVu3dgKEMfjnxduzWoGY3eIVojSRycdbVNNTxf1++1ub+e6b8nJljZvDANb/iiY+fY+mu1Szdtdq3f1j3gfTt0pO3Vy1s9WZl19guDO8xmHUHNjM4rR+9kzOa7dc1nVlX3IFSirdXfczCDV+ycMOXvv19knvw+I0PEnNsdMi5kBgZz5M3P8SfP3yWPUey+Edhtm9fWFAIs6f8nKsvmHjO4hGBTRK5OGuCLDZmjL6G+kbHScsNSO2DpmlMvWACA7v2ZcXedVTUVWK3BjGyx1AGdO1NZX0NoUEhJETG4vF6mt3Ys5jM9E/pyboDm7lyyFisZkuLc9itdu6dejfXjZrCugNbKK4uxaSZGJY+kOE9Bje7qdi3SwYzx9zAkLTTn2qhV1I6M8fcwMCufVvsS4qMZ+aYG+jT5bsvGE3T6NMlgzd/9Qxbc3azJWcnbq+bbnGpXNpnFNFhUb45Uky6zqTBl9M/pReJkfGtXr+ZY26g9wlDE20WK9eNmoJhGITYmk/R2i+lFzPH3NBi2oDOKCG1K1NvvYMu4aH+DuWMSSIXZ01IUDB3T7j1tMvrmk73+FS6x6e22JcQEcusK+5o9Tiny8mKveuJCY1ibP/RbdZv0k2kJ6SRnpB20jiGdBvAkG4/rJtlUFpfBqW1TOLQ9Ivh3qvubnWf3WpndO/hjO49vM26zSYz14+6qs39IzIGMyJjcKt1/3Tsja0eM6z7QIZ1H9hmnZ2JrutYzGbM5sBNh3KzUwSs8tpKahvqeHXJ2xwoymFM/9EkHXuiUojOJHC/gkSn94cF/8Om7O0AxIfHcsfl0/0ckRD+IYm8nTQ6naxYuRKP2UKvoRf4O5xOYXSv4RRUFJIak8wvJt7e4jF0IToLSeTtxOPxsHf3bkIjIyWRnyM/G38TPxt/k7/DEMLvpI9cCCECnCRyIYQIcJLIhRCdWnlRESu//JxtWzb7O5QzJolcCNGpuRqdlBUVUlVZ6e9QzpgkciGECHCSyIUQIsDJ8MN2Yjab6TdgAO5W5vkQQoizSRJ5O7EFBXH52HEcrm17aTIhhDgbpGtFCCECnCRyIYQIcNK1IoTo1MIioxgwYhTdk5P8HcoZk0QuhOjUQiMiiI6KIjk0+NSFz1OSyDsRr2FwoDiX+mPrXwrhD4bhxe1xg+bvSDoOSeSdiNvr5pXM+f4OQwgAgux2f4fQYUgibyfOhgYWL/4GZbMx4MK2lxvzC00jvVcvomNi/R1JwKqprqKooIDImBjiExL9ChEt/gAAIABJREFUHU6HYA2yYQsK8ncYHYIk8nbi9XrJzckmNDLS36G0YDabefz5f/k7jID27GOPUlTwMQlJyfz9jTex2WynPkiIc0SGHwpxCru2bGHZV18CcGDPbr79/DM/RyREc5LIhTgJV2Mj8176F67GRgAMw+D9N9+ksrzMz5EJ8R1J5O3MMAy8Xq+/wxDtZMmXX7Bry5Zm24qPFvDxO2/7KSLR3ooO5/Htwg9Zt2Y1Sil/h3NGJJG3M2UYeN1uf4ch2kFleRnvvfE6xglfzEopvlq4kLxDh/wUmWhPjtpaaqsqaXA4/B3KGZNE3s6UUhiG4e8wRDv4YN48Co8caXVfTWUl77z2aoskLwKP19PU8NI0DU0LzMHtksjbiabr2GxBeNxuGhsC95tdNMnatYtF//n4pGXWLc9k+6aN5ygicbY4amsBCA4J8XMkZ06GH7YTm83GxZdcTFFFJbpJLmug27R2Dek9e3G8x3TX1i0ow0DTNHoPGIjFagVg6/r1DB4xEl2XNlEgMrxeaioqAIiJifFzNGdOMk47MZlMDBg4kOQGJ5WN0kce6G6+625uvutu39/Xjr4Qp8OB1Wbj4aefITYhwY/RifbiqK3FeaxvPCo62s/RnDlpRrQzu1m+G4UIFJWlJbicDURERBAaGurvcM6YJPJ2ZjXpWPXAvGEiRGdiGAalBU03sxMSEwP6aV1pPrYzk64TarFQ0ejydyhCiJPQNI1eQ4YSGRpKere0gL7PIYn8LAi1mql2ufEG6MMFQnQGmqYRHxvLwK4pAZ3EQbpWzgqzrhNps/g7DCHESWhApM0a8EkcJJGfFZqmYTfpFB06QPbuXfKAkBDnoXCrhSCzyd9htAvpWjlLHHV17Nm8CZfLhdVmo0uPjIB9aqyzq6qo8D3Bqek6YeHhfo5I/FhBJp2oIGuH+TcpLfKzJCIigmHDhqEMg93r11GUmxuwE/J0dp7vzZ2jazo2WdkmoJk1iLUHYeoAXSrHdZxXcp7RdZ3BgwfTr39/vB43O9asouDQQZR0swhxznk8HnatW0Nh9iHigoOwdZAuleMkkZ9FZouFSy69lEGDB+P1uNm5ZhV7Nm3A7ZKhiUKcK26Xi51rVpG3by+7N66nrrLS3yG1O0nkZ5nVauXSSy9lzNixmM1mcvfsZuM3i/wdlhCdQm1lJeu//pKj2YfQdZ0hQ4YQG9vx1q6Vm53ngH5sHpak5GSWLV1KfEqqv0MSokPzuF0c2rmDnD278Xo8hISEMHb8eLp169YhhhueSBL5OaJpGrGxsUybPh0Ap8dLZaOLBo/MZy1EeyrJz2fbykzcLhdmi4VhF1zA8BEjsNlsHWaUyokkkZ9jxz9IdouZILMJt2FQ63LjcHtwG4r6mhrysva1ebyum+g97II299dUVFCQfbDN/RarjYxBg08aY9bWzXi8Xtr6yKf27E1oRESr+5RhsG/LppPW361ff+zBbc/9XJibTVVZ22tiZgwa4ptGtjX5B7Koq65qc39sUjJxXVLa3J+7dw8N9XW+v6sqKnzPAni9HiqKi4hOSGzz+KqyUgpzc9rcn5zeg4jotqdMLS8qpORIfpv7g8PCSOvdt839Xo+HrG1b2twfFhVNSo+MNve7nE4O7drR5n6AXkOGYWpjgjhHXR15+/ac9Pi+w0eedH/27l1tzutvNlvoOWRoi+0aYDOZSIiKIDw8nO7p6QweNIiQAJ4M63RJIvcjTdOwmkzE2E1EByk8hiKvspzsXTvbPMZstjDyogvb3F/tqDvp8SFhYVwwYvhJ48rduweXy9VmIk/rmkaELa7VfcowTnp+gN69exNhazsR7yssJHt/219mgwcPwX6S47ceOczRvLw29wdbrUSkp7e5vygnm/KSYt/ftbW1vqGjyjBw11QR0bVrm8eX19We9BokJSQQkZTU5v6CyoqTHh+flMygk3wZuzV10uO7pqfTv1+/NvfXOhtO+R4OGz4caxvvgbvKddLjNU3jwosvOWn9hYcOUHVsnvATBdntDB81qqkuwKJrmHUdm0lvGlIYFkz6rbeetP6ORhL5eULTNCwmjaS4WMZPmNBmOV3XibUHtbnfkpqC7STHWyyWkx4PMHbs2JO2yNOSEgi1tz5TnFLqpPEDpMTGYG/jeIAhgwbSLbXtFnNiZDgWS9tTIIwcNozanj3b3B8XF0fsSc5/0YWjmq3fWFZWxoL5C/DSNO987/R0Yk5yvCmtKyEnuQYpKSlEnOT4fhk9iAlruxUZEhJy0vi9VvNJ34Pw8PCTHh+mR5zyPYwPDcHcRos8OD7ulMef7PwAF48ejdPpbHWf2Ww+5fGdjSTy80xIaCj9Bww44+MjIiKIaKPb43T16dv2z/ZT0TTtR8UP0KVLF7p06XLGx3dNS/tR508/obVeVFjou0FmMplOuZJMVFQUUVFRZ3z+2Lg4YuNa/8VzOkwm0496D2w22486Pjg4+Ed/BnpktN31I1rqeLdvhRCik5FELoQQAU4SuRBCBDhJ5EIIEeAkkQtxCm632zf8sCM+FSgCn3wqhTiFiooK36yVcfHxfo5GiJYkkQtxCt+fR95k6ljTn4qOQRK5EEIEOEnkQggR4OTJzg6qtraW7du2nfbCz3a7nejo6LMclX/FxsVhPclkW21pbGz0da8YhkFDQ0N7h9ZuzvebsZqmYbFYOuwshP7SqRJ5Y2Mj1dXVP7oeq9WK/TxftzE3J4df3nV3m/NViDNz8MABBvZte8Ipf9J1nbi4ODiPk2RCfDwffLxQ7jW0s06VyF988UXmz5//o+u57bbbeOqpp9ohorNPN+nEpkadsgXkanDjaujYS9B5vQZ04PWvlVJUVJX7O4xWKaXwuLzo5/GXTCDrFIk8ODjY123Q2Nj4o+tzf29V9fOdPTyIa353hfyUBRpqnc1GoHQ0htfA6fjxn++zoaqomhXvrvN3GB1Wp0jks2bN4oYbbmi3+jp6X3JHZQ87+fS9HUFoVNsLdviTMhSaLo2Js6VTJPLExEQSE9te0UUIIQLZ+X2LWwghxClJIhdCiAAniVwIIQKcJHIhhAhwneJmpzh3lFLk7S/AWX/qB5HsoUHEdYkhOLT9Hq5yOhrJ3ZtPREwYSd0S2q3e01GcX0plSTUJXeOIijv1uqmlR8spL6wkrksMMYlNa3we3JGDx+2l19D08/4pTXH+kEQu2peCb9/JJGdv/imL6rrOzQ9cR9/hba94/0NVlVYz/28fMPTygUz7zdR2q/d0bFu+mxWfrOX6X19F1JhBpyy/Z10Wi9/N5KqZExh91QgAPnjuM+qq6/nzOw9IIhenTRK5aHeGoTC8Bv0v7ONrabYlOiGy3c/v9RgYxrl/8Ecphddz+k+PtlY+NDIETRK4+IEkkYuzQtd1ho8bTJ/hGf4OJaD8+qk7AeThGfGDSCIX5wWlFI0NLkwmHbPVjLO+kcLcYnRdJ75rLPaQIDRNw+s1qCmvpfRoOTEJkUTERWA2tz4Bk2EY1FbWUXqknODwYGKTorDYWp957/j5y4sqqa92EBkbTnRiJCazqUV5pRQet4eKoipqKuuISYwiIjbspK/N6/FSWVxFVVkN0QlRRMaFt1rW7fKglMJmtza/LmYTZosJZ30jxfmleL1e4lNiCQkLRje1bMEbhkFDXQPFh8vQdI2E1FjsoXbcjW6UAqvNIl8WHYgkcnFe8HoMHrvlaQZe1If0gd1Y8v5K6qrqAQiNCGbKnRPo3q8rixZksmP1Hgxv0/S8PYd0Z8Y91xIa0fzR9MaGRr6at4S1X2/B8BoYXoPohEgm3zGe/qN6Net/djW62fjNVlZ8sp7q8hp0XcfwGnTJSOLKW8aQMbi7L5krpcjdm8/nb35DwaEidJOOrmsMuqRfmzP6FRwq4tPXFnE4qwDdpKNp0G9kb8KjWyb/p2e9iKOugT+/8wBmixlHbQOP3/EPho8fTEpGEt++9911sdosDJ8wmCtuGetL/ACNThdL31/Fuq8343K60TSwh9kZN/1iNi3ZQW1FHb995qdExLT+ZSICjyRycVYoBR63F7er7QnGNE3HZNabtXhz9uRzYEcOgy7uR0pGEkezi9m0ZBtfzvnWl/iuvG0suq6x8dvtHNiWw6K3M7l+1lXN6t63+SA2m5WLp44grU8KRbklrPx0Pe/93yfc9uD19B7W1OXj9RosX7iGpR+sJi4lhqk/nUhMYhRHs4tZ9/Vm3v77Qm554DpfMi/KK2HeE++jDMXFU0eSPqArpQXlrPt6M/XVjhavsaK4kjf/8i5ul5sLJw+j5+B0KoqrWPfVZvZtOtDqdQmLCmvxK2D/lkPs2ZhF3+E9Se3VhbrqejYs2sqaLzYRERPOZT+5EE3TMLwGX879lvWLtpKcnsioSUOxh9rZt+kAixZk4nZ5CAkLPr03UQQMSeTirDAMgyXvr2DtV5vaLNO1VzITbrqsWUu2vtbB1DsncPHUkQB4PV5qKmvZsz6L4DA7P3v0ZiJim1qSfYf34u+zXiRr66EWdeuaxtSfTWToZQPQdI1+I3oRnxLLu8/+h0VvL6fnkKbhfaVHylj56QbiUmK446HpxCRFH6u7J2l9Upj/1Ad8MXcJs/42E7PVxLIP19DY4OKqmRO45OqRvvN165vKgqc+wu3yNItj2UdrcNQ2MPHmyxk//RLf9vT+XXnrbx9SXVZzWtezvsbBf/1yMiMmDPFtS0iJ5b3/+5R9mw4yespwLDYLRXklbFi8jYTUOH768I2ERjb9Uuk/qhch4cGs/Gz9aZ1PBBa5PS7OmqqyGkoLytr8r6qspsUIj6DgIIZcNsD3t8lsIrl704Rn/Ub19iVxgJikKELCg3E5W7b6k9MTGXBRn2b9wP1G9SKpWzxHs4soLShHKcXONXtxOV1cMHagL4kflzGoG117pVCUV0JxfinuRg/7Nh8gNDKE4eMHNyub1juFnkO6NdvmcXvZsz4La5CV0VOGt4iv34jTH3YZFhXKgAt7N9uW0jMJe6jtWL9607ada/ehUFw4eZgviUPTdRx1xVBCI0NP+5ztSRkKpZRMp3yWSItcnBW6rjHl9vGkD0xrs4zVZmlxoy4k3E5IeOs//Vt7yMYaZGl1Du7UXslYbZYTYtJJTIvjyMFCSo6UE5sUTWFeCQAHd+RRWdKydVxd3rSt9EgZJpOOy+kmrU8qQcG2ZuU0XSMxLR7Y7dtWUVxJQ72TLj0SsYc0n0JX046XPz0RMWHYT3hwymKxoJ/QL1+YU4zJpJPcysNQUfGRhEeFUFNed9rnbS+NjkaUoYiJjTnn5+4MJJGLs0LTNMKiQk85jvxEwWHt85RnUHDrc4+bLU0fea/HC4DhabppWny4lIqiylaPiUmMQtN13xdGWzF+/9cCQOOxFZfaenL1xPInY7PbTl2IptelaZrvdX6fyWzy2xJr6ti4fqvVKq3ys0ASueiQXI2t32T1HOvDtliPffS1pgR31Z0T6N4vtc36bHYbJQVlADhqW1982VHTfLvl2C8CR10b5duo58cwWUwYhsLpbPkrxe1y4/F4WjlKBDrpIxcdUlFusa/VfZzhNSjIKQYNkroloJt0YhKj8Hq8VJVWER4d1uK/nL35ZG3NxuloJD4lFmuQlcK84laT8/FumuNik6OxhwZRfLiU+pqWI1qKTijfHtL6pGB4DbJ3HW6xr+xoBdVlte1+TuF/kshFh5SfdbTFfC871+ylJL+U7n1TiYqPQNM0+o/sjclsYsM32yg7WtGsfGFuCZ+8+jWfvLYIr8eDxWqm7/AM6qsdbPxmW7OyR3OL2bf5YLNtZrOJ/qN643K6Wf35xmb7SgvK2Ll2Xzu+4iaDL+mHxWZh4zfbKMwt9m13OhrJXLj2rPwKEP4nXSvirPB6Db58awmZC9ectFy3fqlMuunys3L+D5//jIunjiQ2KZqCQ4Ws+nwjVruVKTMn+Pppu/ZJYcSEwaz7egvznnifi6YMJyougvKiClZ/vglHTQNjrhtNZFwEuq4zfsZlZO8+zJIPVlFbVU/3/l2pqahlzecbcda17M4YP/0S9m85xIpP1uGoa6Dn4O7UVztY8+VG6irr2/11R8VHcsWtY/hizre8/tg79BveE1uwjezdhykvqvyuS0l0KPKuirOmJL/slGXaGqHyY10wbhDOeidfL1iGOjaJV2xyNNfPmkJKRpKvnNliYvLt4wiLCmXNF5v49PVFTU92GgbBoXauvH0cF08Z7nsSNK5LNDP/eAOfz/mWVZ+uZ80XG1FK0WtIOv1G9mL5x2ubxRERG85PH7mRz95YzLqvNrNh8VaUUnTv15UBF/Xl23+vaNfXrWkaF02+gOBQO6s+Xc/mzJ1oQPcBXZl007V8PudbUE33BUTHoSmlzv00ceKs27ljBzfdMAOTXeemR35yzkYKKKXwur0Yp/mx0nXNl1TcLg+aprVoNXo9Xrxe49ioi+a9gW6XG9R3NxaVoXC7PZhMTU+MlhVWUFNei9VuJSktHrPVfNK5VorySvC4PJgtZhK7xWOztxxlcXzulNKCcuqrHYREBBOfEgta01QDZrOp2bBKpZq+SEqPVlBXWYc9NIjEtHg0TcPj8WIy677RJO5GN2hNo2s0TUMphdvlQddbjkRRSjXdvNU0zJbmc8IcP6fXa6ABulmntqKOl//4FvaQIO56/NZ2nQf+VA7vPsI3b65g6NBhvPv++zJFbzuTFnkHpVTTAxjnmqZpmM/w5/uJ476PM5lNbbYgLdbmx2i61qye+JTYpiR7CpqmERRso1vftkeufL+s2WJudeGK1ob3aVrTl1Vi1zjoGtdsn/WELybLCddA07Q2r4umaS3Kb162g6/mLWXSLZczcuJQ33VTSlGYV0JtZT0pPZIJOs3hjCIwSCLvoMrLyvF6vYSFhpy6sOgwUnt2welw8u2/VxIaGULXXimA4vD+Ar58awkAIyYMaXXGRBG4JJF3UIbR9KCLySJ9oZ1JXJdopsycwLfvreCtJz7wbde0pvsRU+4YR8YJUwmIwCeJXIgO5PjNzj4XZHBwR45vUq6I2HB6DEhrMZ+M6BgkkQvRwWiaRnRCJCMnDvV3KOIckY4yIYQIcNIi7+Aaap0c2Jjd6pA7Tdewh9nRO/CSX7pZb3UCqTNhGMZ5OWzOEtT6kMrzSUOt0y+jqDoLSeQdXE1pLcvfWefvMPxGN+ntdsNXGcZ5ucK9xWY+79ff9Lq8KMPfUXRcksg7qLi4OCZMnIjX622zjNfrpba2pkO3lBwOR6szAf4QShnk5eZhGAbR0RFERv2wqXnPJsMwqKmuPv/fQyvYrcGEhrW9SLU4c/JkZydmGAaNjY3nfxL4EdzuHz9169dffMmf//xnDK+Xvv368fqcNzGbz482kFKKRqeTQHkLrTYrcXFx531XUKA5Pz6Nwi90XcduP3ePaQeimpoa3po3D+PYL5v9+/axauVKrp82zc+RCfGd86/DT4jzyNw5c8jOzvb9bRgG/3rueWpqTm/RZCHOBUnkQrQhOzub+fPeatH1lJ+fz7w5c/0UlRAtSSIXohVKKZ7/v39SWVHR6r635s4lJyfHD5EJ0ZIkciFasTwzk28WL25zf2VlJS++8IJvThsh/EkSuRAncDgcvP7qa2iaht1ux2q1+vYdv0Fst9tZkbmcLZs3+zFSIZrI8EMhTtDQ0EBOTo5vpMrq1at5+qn/RSnFBcOH8/Cjj/jKxsfHE5/Qcl5yIc4lGX4oxAnsdjv9+vXz/Z2ff8S3Wk94eDgDBg70Y3RCtCRdK0IIEeAkkQshRICTRC6EEAFOErkQQgQ4SeRCCBHgJJELIUSAk0QuhBABThK5EEIEOEnkQpyCy/Xd4hu6qX2WjROiPUkiF+IUKisqfYk8UR7HF+chSeRC/ACyRJk4H0kiF0KIABdQidzj8eB0OmUOaCGE+J6ASuSZy5Zx7+zZ5OXlAfDs35/mntmzKSstA+ChBx/k3tm/A6Curo57Zs/mntmz2bp1KwAvvvAC98yezZH8fAD+8uhj3DN7Nk6nE6/X6yu/ds0aAOa88Qb3zJ7NgawsAP73b3/jntmzqaysBOAP99/PPbNns3TJEgDeffsd7pk9m53bdwDw/D+f457Zsyk8ehSAR//0MPfMns2XX3wBwMcLF3LP7NlsWL8egHlz5rJg/nyqq6oAyM3NJSsri5KSEgDKy8vJysrynb+osJCsrCzq6+oByD98mKysLIqKioCmxQ+ysrIoLy8HoKSkhKysLN96kwVHjpCVlcXRggIAqqurycrKorS0FICysjKysrKoOhZP4dGm8x2/fnW1tWRlZVF87HwVFRVkZWVRcWxVneLiYrKysnzvl8PhICsry3c9qquqyMrK8r1/paWlZGVl+VbecTqdTec7cgSA2mPnKykubnY9Dh08eOoPjxAdmOmxxx57zN9BnK4jR45gMpkZffForFYruq7TNS2NHhk9sFgsmEwmemRk0KNHDwAsFis9e/UiIyOD0NBQdF0nJSWVHhkZ2Gw2dJNO9+7p9Mjoga7rmEzmpvI9MwgPD0fXdZKTu5DRMwO73Y6u66SldSOjRw/MFgu6rpOR0ZOMjAwio6LQdY3ExCQyMjIICQ1B1zVSU7uSkdEDq82Gruukp/cgIyOD6JgYdE0jPj6BjIwMwsLDUUqhaRrJXZKx2+3s3r2b0pJSrFYLsXFxFB49Sk52DuFhYURERpKTk8uR/CPExsUSEhLC/n37KCoqxmTSiU9IIPtQNm/NnYvD4WDAgAG8PX8+L77wL7qld6dbt27845lnmD/vLUpLS7n0sstYvWoVf/3L42iaztBhQ1n44Uf88x//R0JiAj179uTlF1/izddfJy/vMOMnjGfz5s089vAjOJ0NjBw1iq++/Iqn//d/CQ8Pp1//frw1dy4vv/gS+/ft48rJk9mzZw9//O+HqKys4OJLLmF5ZiZP/s9fMVssDB4ymA/ee5/n//kc27Zs4eprriE3N5cHfn8fBQUFjB03lg3r1/OXRx/D7XYzfMQIPv/sc559+mnWrF7NddOup6qqijdee53DeXn069+fvLw83p6/gOqqKnpk9GDHjh18+P4HbNq4kREjR9LgcPDqy69w4EAWgwYNoqiwkHlz51FSUkyv3r1Zv3Ytf338cdasXsPkq65i6LBhLFu6lD17djNx0iQKjx7lD/fdx749exl9ycXs2Ladxx55hC8++4yLL74Yu93O7F//hi+//IIpV11FVWUl9/7ud2zdvIXLx4whKyuLPz30EF989hnDhg0jLDycB+9/gIUffsgVV16Jx+Pht7NmsWbVasZPnEB+fj7//cADfPHZZ/Tt14/o6Ggee+QR3nv3XS67/HJsNhu//uWv+HbxN1w5eTJlZWXcd889fPHZZ3Tr1p34hHieevJJ3p4/n5EjRxISGsqjDz9CSXEx/Qf0x+v1snvXLkqKi7HZbAQFBZGTnc2R/HzCwsKwWCzs37ePwqNHiYmJQdM0du3cSUlxMWazmeDgYA7n5XH48GGCg4Ox2WwcOHCAowUFREVFYTKZ2L1rF8VFRWiaRkhICEeOHCEvN5egoCCCgoLIPnSII0eOEB4ejsViYd/evRQWFqIMRWhYKIVHC8nNycFisWC328nNzSX/8GFCQkKwWq2+honH4yE8PJzi4mJysrMx6TrBISHk5+dzOC8Pu92OzWbj0MGDFBw5gquxkYiICMrKypoaBgpCQ0M5WnCU3NwcrFYrdrudnJwcjuTn0+BwEBkVdc5zoNvtpqGhAZPJhK5/rx2uhBCtKioqUsszM9XyzEzldruV1+tVyzMz1do1a5RSStXV1anlmZlq69atSimlykrLfOWdTqdSSqlVK1aqlStWKKWUcjqdanlmptq0caNSSqnKykpf+bq6OqWUUmvXrFHLMzOV1+tVHo9HLc/MVOvWrlVKKVVbW+srX11VpZRSauOGDWp5ZqZqbGxUSim1YvlytXrVKqWUUg2OBl/58rJypZRSW7ZsUcszM5Wjvl4ppdSa1avV8sxMZRiGcrlcvvLFxcVKKaV2bN+ulmdmqpqaGqWUUuvXr1fLMzOVy+VShmH4yhcUFCillFq2dKm679571Y7tO5RSSj34wB/UjGnTffXNvO02NWPadPWfjz9WSin1yksvqRnTpvte458ffVTNmDZd5eTkKKWU+tUvfqlmTJuu3nn7HaWUUm/Ne0vNmDZdLV2yRCml1N+fekrNmDZd7d69Wyml1H33/l7NmDZdvf7aa0oppT784EM1Y9p09fmnnymllPrX8y+oGdOm+96Dh//4JzVj2nT1/P/9Uyml1JdffKFmTJuu3n/vPaWUUnPeeFPNmDZdrVi+XCml1JNPPKFmTJuunnriSaWUUnv37FEvPPe87z1et26deuG559WO7duVUkot/nqReuG559VHH36klFIq+9Ah9cJzz6tvv/lGKaXU1i1b1AvPPa82btiglFJq3pw5auZtt6s/PfT/fPXPvO129dyx+JYtXaau/8l/+a7PcQG1QlB9fT3OhgZiYmP9HYoQQrS73JwcSkpKCA4OZsDAgdTU1LBv716ioqLp2asnVZWVPPXk35j129+QmprqOy6gEnnW/v3k5eUxcdKkU5ZtbGzk0UcfpaCggIceeqjZii/izDkcDnbu3ElQUBD9+/fHbO74i0zV1dVRWFhIz549/R2K6GD2799PamoqwcHBP6qegLrZGRYWRkJi4mmV9Xq9ZGZmsnDhQt/Nu/OVYRjs2bOHZ5555qydw+Vy8cEHH7Dk2I3ZM5Wfn8+0adOYPXs2DoejnaI7f1VXV/PHP/7Rd8NXiPZUVVXFww8/TENDw2kfs3jRItxud7NtAZXIk5KTGTRokL/DaHf5+flMmDCBDz744Kyd4/nnn+e2224jNzf3R9WjlMLhcPygD16gcrvdPPjgg4wfP57hw4f7OxzRAY0aNYpLL72UBx544LSPeeSPf8LpdDaJwfQ0AAAgAElEQVTbFlCJvKqykvzDh/0dRrtrbGyksLDwrJ6jqKiIxsbGs3qOjmbu3LmYTCYmT54sT3SKs+bqq6+mrq6Of//736dV/vrp07BYLM22BVQHZ0lJCXl5eaR27XrGdZSXl7NixQp69uxJnz59WL58OatWraKhoYFBgwYxdepUwsPDfeWrq6tZtmwZaWlp9O/fn8WLF7Ny5UpsNhsjR47kiiuuaHFRA1lpaSkmk4no6Oh2r7uqqgqXy0V8fHy7193eioqKePXVV1mwYEGHen/F+cdkMvHggw8yffp0JkyYQOwpBnM88OCDLTeqAFJaWqoOHDhwWmXr6+vVqFGjVHBwsMrMzPRtX79+vQoPD1ezZs1SV199tTKbzUrTNAUoTdNUenq62rlzp6/8rl27VHR0tLr99tvVNddco0wmk9I0TWmapnRdV5dffrkqLCxsdu5Zs2apPn36qA3HhhR939KlS9WUKVPUP/7xD6WUUo8++qhKT09XgAoKClJ9+vRRd911l6/87bffrvr06aPefffdH3Stvq9v374qOjpaASoxMVH16dNHfXNs+JNhGKqsrEw99NBDKiUlRVmtVmW1WlXv3r3VE088oRwOR7O69u7dq6Kjo9WIESNUdXW1b3tRUZG68cYb1eTJk9Urr7zi297Q0KBeeuklNWDAAF/daWlp6g9/+IOqqqpShmH4yrpcLvXRRx+pxYsXK6/XqzZu3Kgef/xxNWvWLPXPf/5T5eTkNCt/PP4DBw6oZ599Vv3iF79Qv/vd79ScOXPU0aNHW5T9IZ588kl18803K7fbfcZ1CHG63G63uu6669Szzz57yrJvvPaab3jrcQGVyH+IkyXysLAwFRwcrLp3765efvlltXv3bvX111+riy66SAFq4sSJviSwa9cuFRUVpUwmk4qLi1PvvvuucrlcKjs7W02bNk0Baty4ccrr9frOce211ypALT829vT73n//faXruvr5z3+ulFLqhRdeUGPGjFGAioqKUlOnTlWPPvqor/zxfS+++OIZX4urr77a92UxePBgNXXqVLXm2Fjo7OxsNXDgQN+X2MyZM9Wtt96qkpOTFaAmTZqkqo6NWVaq9UReUFCghg8frjRNU/fdd58v+dXX16s77rjD9wVy6623qjvvvFMNGTJEaZqmBg4cqEpKSnx119bWqpSUFHXhhReqe+65R5lMJmW1WpXFYlGACg4OVgsWLPC9N4ZhqGeeeUbZbLb/396ZhjV1bX38H0LCGIQwj4KAQ8V5QK2orbb1trWTQ72tdWr1ra1aRb21DhVra7Va2kqtVbGKVxyr3AqCOCWACE6IMgrITIAwBEgghAzr/QA5rzGgYK2W++b3PHxgn3X22WfI2mvvvdbaZGxsTKampmRiYkJGRkbUo0cPOnLkyGMp86amJhoyZAj95z//eexnbsBAVzl06BCNGDFCR5e0h/+w4Yxfv5ZupcgrKyspOyurU7JSqZQGDhyop8jj4+PJ1NSUzMzMKDk5WeecvLw84nA45OjoSBUVFUTUGkBhYWFBHA6HTp06pSMvl8tpwIABxOFwKDY2linviiInIkpISCAA9O6777YrHxwcTKmpqZ267/ZQq9U0Z84c4nK5FB0dzZS3tLTQe++9RwBo7ty5OhZ2VVUV04msXLmSKX9QkRcXF5O/vz+x2Wz6/PPPmY9Qo9HQnj17CACNHj2aSktLmTrkcjktXLiQWCwWLVq0iFQqFRH9nyI3MTEhe3t72rx5M92+fZuuXr1KH330ERkZGZGbmxsTXJKdnU1sNpu8vLzo3LlzJBaLqaioiIKDg8nc3JycnZ0pLy+vy8/r2rVr5OXlRYWFhR0+z5SUFNq+fTuFh4eTVCrVOa7RaCglJUWnk/orUCqVFBsbS1u3bqWzZ8/qjR6am5spOTmZGtuCf/7bqK2tpQMHDlBwcDBlZmbqddo1NTV09erVZ9S6rlNUVETW1tZ0586dh8odDg9nAsC0dCtFfjc7m87dpzAfRl1dHbm6uuop8jNnzhAAvakBolYL0t3dnfh8PjOFc/nyZQJAw4cP17FMtfzwww8EgAIDA5myriry2NjYDhX5k0CtVtP06dP1FHl6ejrZ2tqSm5ubXqQYEVFOTg6x2Wxyc3OjmprWyMD7FfmdO3dozJgxxOFwaPXq1TqKRCaT0ciRI8nc3JzOnTunV3dlZSU5OztTjx49mLrr6+uJz+cTm82mXbt26cg3NDSQn58fAWBGE4cOHSIAtHr1ah1ZpVJJixYtooCAALpx40aXn9eePXto2LBhJJFI9I5pNBoSCoW0d+9eqq+vpxdffJGCgoJ0ZPLy8sjOzo527tzZ5Wt3FrVaTfv27aMLFy5QZWUl2dnZ6T3nyMhIsrKyosttkZ7/TUgkEvrmm2+osLCQjh49Sv369SORSKQj8+GHH5Kvr+8zamHXkUql9Nxzz9GhQ4e6fG638lpxdHJCfz+/J1KXnZ0dTExM2j1GRHp+mn5+fujRo4eerF9be3Jzc59Iu54md+/eRU1NDQYPHgw3Nze94z179sSgQYNQW1uLrKwsAK0+72q1GtXV1Zg7dy6uXLmCiRMnYsOGDTrBQQ0NDbh9+zZ4PB7MzMyQk5Oj81dXVwc3NzfU19cjIyODqbu2thbW1taYNGmSTlt4PB68vLwAgEkCpl00PXbsGH7//XeUlZVBoVDA2NgYv/zyC+Lj4zFs2LAuP5esrCw4OzuDx+PpHWtqasKpU6cwe/ZsqFQqSCQSxMfH68ikpKRAIpEw38ZfQWZmJiQSCSZMmICamho0Nzfj8uXLzHEiglAohKWlJTz+hHPA3xEiQmRkJEaOHAkPDw9UVFQgNzdXx/NLpVJBKBT+pe/gScPhcODi4gJRW1K5jti4IUjP/bdbKfIePXrAxcXlidTF5/M7VORcLhfW1tY6Ze39qIHWFWcATEbC7kRJWxZDb2/vdiM0jYyM4OrqCrVaDZlMBqA1yrGhoQEFBQXIzMyEhYUFEhISkJyczOyiA4BRqpWVlQgICECfPn30/q5fvw4Aeh+liYkJbG1tO2y3tpMdP348XnnlFRQWFmL69OkYMWIE3nnnHezYsQNpaWmP7W5ZXFwMZ2dn5t3ez40bNzB06FBwuVwIBAKkpqZi1KhROjLx8fEwNzdvN5q4paUFR44cwc2bNx+rbVouXryISZMmgc1mIzQ0FDKZDP7+/sxxuVyOpKQkeHh46P1mioqK8Ntvv+GLL77A2rVrce7cOT3D5e9MU1MTUlJSMH78eEgkEoSFhaFnz55wui9YMCsrCyKRSO/dPE2ICAUFBfjxxx87JW9sbAxHR0c0NjY+VC7mzBmoVCrdcx+7lc+Avb/uxvCRIzBk6NCnfm2tIuuovD2L9u+O1jf6wY/ifh5UhtQ6HQczMzNs2rQJbDYbq1atQmBgIC5cuMC4LWpzxjs4OGDt2rUPbUefPn10/jcxMYHNQzLL2dvbA2jtcA8fPozw8HAcO3YMubm5iImJQXR0NKysrPDuu+9i8+bNj3TnehCRSMRY/+1du1+/flAqlYiIiACPx8Obb77JHFer1bh27RoGDx4MCwsLpry0tBSXLl3C7du3sW/fPoSFhT3WaEHL6NGj4evrC5lMhqioKHh5eSEgIIA53tDQgMzMTMyfP1+nQ8rLy0NoaChmzpyJV199Fbdu3cKiRYswe/ZsrF+/Xjej3t8UIyMjzJw5ExwOB2lpacjIyMBHH32ko8hTU1OhUCgwduzYp94+lUqFS5cuITs7GydOnIBcLseyZcseeR6bzQaPx4NUKn2o3PYfgmFmZqZT1q0UeUZGBjx7tf8D+6vJzs6GTCaDpaWlTrl2WN3ZiNOysrK/zcYY7u7uYLFYKCwshEql0rPK1Wo17t27Bw6Ho6cM/f39sWTJErS0tODs2bOIjY3F1q1b8e2337al/3UBh8MBl8vFzJkz2/Udr6iogIWFhd4z7Qp8Ph9LlizBggULUFBQgNTUVERHRyMmJgahoaHw9PTEmjVrHrv+B9Fa2ZWVlYiLi8OQIUMwaNAg5nhJSQkKCwsxa9YsmJqaMuWmpqbw9vaGr68vwsPD/3Q7Ro4cCQAQCoUoKSnBkiVLdDqOtLQ0SKVSPYs0LCwMY8eOxaBBg8BisfCPf/wDK1euRGBgIKZMmYKhz8BI6ipmZmbM6CM6OhpsNhvTp0/X6YQSExNhYWHxTCLBWSwWbG1tMX78eBQUFCAhIeGJ1j/2vg5by9+/+72Pz5Yvw4i2D/hpc/PmTZw7d05n+iAvLw/h4eGwsrLCW2+9xZRrp2y0GyRoUavViIuLezoN7gQDBgyAk5MTrl27hpy2zTO0EBEuX76M/Px8ODo6onfv3jrHTU1NweVyYWlpic2bN8PW1hY7duxAYmIiAMDGxgaDBg2CWCyGUCjUu3Z5eTmmTJmCcePGMVM8XSUmJgYbN25kknj169cP//znP7F//3589dVXICLExcWhpaWlS/WamZk9cqohIyMDZWVlmDFjhs4UXVZWFurr6/H888/rRIPa2dnh+eefR8+ePbt2k48gISEBLS0tmDlzJqPIiAhXr16FlZWV3hxxUlISgoODdUaYL774Ipqbm5l3112QyWS4fPkynnvuOZ0OSDsqGjZsmE5n+rRgs9kYNmwYBg0a1KVkWEQEtVr9yER0C+Z/qDf90q0UuVevXnpz14+Cy+W2u0jZVZRKJZYsWYKffvoJcXFxCA8Px9tvv42KigosXboU/fr1Y2S1H9WePXsYBVlXV4edO3ciNjZWr25tJGlGRgZu3brF7IgDtOZIWbFihd6CWlfh8XhQKpWIj4/H3bt3IZVK4enpialTp6KqqgqBgYHIzc1lOqqUlBR8/PHHYLFY+PDDDztcI9De77Jly6BQKLB48WI0NjbC3NwcixcvhlKpxJo1a3D+/Hmo1WoArZb46tWrcfPmTTg7O+sMibvCpUuXEBQUhN27dzN1A61zjdofsJ2dXZczNLq7uz8yZUJSUhJsbGwwbtw4nfKUlBQYGxszuVni4+N1Ov8nTVJSEvr37w8fHx+mTKVS4erVq3B1dYWvry+qq6uZBeVvvvkGX375pY71XltbCyMjo8d+D8+K6upq5ObmYuLEiTrR2CKRCIWFhRg7dizYbDZu3bqFhoYGSCQSbNu2DUuXLkViYiIyMzOxa9cubNy4EYsXL0bxM07/oVKpUFVV9dDfGgCk3bmjP6p/In4zT4lvNm2iywkJnZLVuh/a2dlR1n2+51r3w/fff1/vHK37oaOjI+PKpHU/HD16NM2aNYtMTEzI3Nyc2Gw22djY0MaNG0kul+vUc+/ePerXrx8TCDN69Gjq1asXWVpa0sKFC/XcD0tLS8nZ2ZlYLBbZ2NjQtGnTGN/qJxEQRES0e/duAkBcLpfs7e0Zn/iysjJ68803icVikZOTE02aNIkCAgKIz+cTi8WiTz75RCe6Mzk5mQDQ5MmTdepvaGig4cOHEwDGHa+xsZE+++wz4nA4ZGVlRWPGjKGXXnqJPD09icViUf/+/ZkNAYhaXcoAkJeXV7v3MGXKFAJACW3fQG5uLtnY2JCJiQktWrSIoqKiKDY2lr7//ntyc3MjCwsLiomJ6fKzCgoKogkTJuhFtd7PggULyNfXV+/dv/LKKzR06FCqr68nkUhEmzZt0vFvLisrI0dHx0cGG507d65d99UH6devH82aNYv5Xoha3dgcHR1p3rx5REQUExNDp0+f7rCO+fPnU58+ffSCTGQyGUVEROi8o/aoq6ujiIgIunfvnt6xgoICioiIYFxMtTQ0NFBERES7kdrXr1+n6OhovejFB0lLSyMWi0UnT57UKf/jjz/I2NiYoqKiSKPR0MqVK6mxsZHCwsLozp07FBQURP3796eQkBCqrq4mpVJJ77//Pq1du/ah13sc1qxZQ8OGDeuUbFNTE/n7+1NISMhD5QryC3TeNxFRt5ojF1eKO506lcfjMZ4U91saL7zwAgoLC3UsEi2mpqa4fPkyRCKRXq4RW1tb7N27Fx9//DGKi4thbGyMESNGwN3dXc+7wcvLC5GRkdi5cyeSk5OhUqkwcOBAfPrpp/D09IRcLseAAQMYeWdnZxw+fBh79+5l3PIUCgXMzc3x2muvwdfXV8fifxxmzZoFmUwGgUAAjUbDDMNdXFwQFhaGU6dO4eTJk8z+oAEBAVi4cCEmTpyoM3Vgb2+PBQsWoH///jr183g87NixA/v372f2DXVycsLWrVvx8ssvY//+/SgqKkJdXR08PDwwb948LFy4EI6Ojo99Tz4+Pjhx4gSWL1+OXbt2ITQ0FEZGRmhpaYG3tzf27Nmj58bYGYYOHYrjx49DKpXqLSppcXd3h0aj0VkoTkpKYrwpzM3NER0djXHjxnU54VZaWhreeustcDgcJCQk6Hwr7bVDqVQyVj8R4cSJE6iqqoKfnx80Gg0yMjIwderUds8PDw9HfHw8Tp48qWcJHj9+HAsXLsTAgQNx9uxZZpH5QUJDQ7F69WqMHz8eFy5c0Dm2bNkynDlzBuvWrcOGDRuY8gMHDiAwMBBjxozRmW4UiUSYPXs27t27h/DwcEybNq3De7ewsACfz9eZOmtubsbBgwehUqng5+cHlUoFpVIJY2Nj1NfXo2/fvsjMzISdnR0++OADZrQulUof6S3yV6NQKCASifSmMR/E08tTv/Dx+plnQ0NDAyke0Us/abQW+euvv97lc9VqNTU2NpJMJqOWlhamXKVStZvDQ6lUkkKhYLbRetJoNBpSKBSkUCj0enSi1khAmUym197HucaDYcYtLS1M3U1NTe3en1qtpsrKSqqqqmq3bolEQqmpqTqWo0ajofr6ekpOTqaIiAiKiIiguLg4qq2tfWSoc0fk5uaSh4cHs4Vbe+Tl5dGAAQNo586dJJfLSSgU0oYNG+izzz6jV199lUpKSmjRokV6FntnLHKxWEx9+/Ylb29vnbw17REdHU1eXl4UHx9PcrmcDh06RNu2baPJkyfT+vXr6dq1a/TVV1+1+yyOHj1KkydPpvz8/HbfR1xcHLm4uJCvry+lpKR02IaoqCji8/m0YsUKvWNffvkl8fl8Ota2dZqW2NhY4vP5tHTpUp1yqVRKb7zxBrm7u9Py5csfeu8KhYJWrVpFkyZNorKyMiovL6egoCDav38/OTg4UGpqKoWEhNDZs2eZ71L7bMPCwph6KioqyMPDQ++dxMTEkI+PT6f+9u3b124bu2KRJyUlkbOzc4ffv5bJk17SiybuVor8WfBnFLmB7ok2Enb79u0dymg0GqqoqKADBw7Qli1bKCYmhpqamkgul9PRo0cpJCSEysrK9BRkZ6dWmpqaqKSk5JFTahqNhrKzsykkJISCg4MpOTmZVCoV1dTU0K5du+jgwYN6EcxErUp8xYoV1NDQwCROezANhNYQiYiIoJs3b3bYBrVaTTKZrEPjRCaT6XUkGo2mw3Oam5tJIpHQt99++9B7J2pV5gKBgLZs2UKhoaFUVFREarWabt++Tdu2baNLly7pXPvWrVvk4OBAt9v21CQiOnXqFHl4eJBIJKLy8nKmTUqlkqRSaaf+OjJ8OqvINRoNff311/TBBx88Urbb51pZvvQzOt9OuPdfiUGR//8kMjKSxo8f364S/DN0VpFrNBq6ePEiCQSCJ3p9jUZDJ06coO+//54aGxtJqVSSUqmkkydP6uQLul9eqyCfJhkZGXT06NEnXm9ISAgNGDBAZ/3jvffeo7lz55JSqaRVq1Y90dw0nVXkcrmc/Pz86MKFC4+UVSmVegZCt5oj53K5Tz1goWfPnggKCupwftDAfycvv/wyQkNDceHCBbz99tt/emOJpqYm5ObmoqCgAAqFAmlpafD09ISTk1O76wQajQbx8fFYt27dn7rugxw/fhyLFy+Gubk5duzYwZTX1NQgJSVFT766uhoymeypBrwRERITE/HSSy890XpVKhWuXLmCMWPG6K19DB48GKdPn8aoUaM6XBfpLBqNhlkPysvLg1QqxbVr18Dj8eDt7Q0ul6sjT0Q4duwYevfujYkTJz6yfnlzs94aX7fafNmAgadJZmYmVqxYgUOHDj00ZUBnEIvFOHHiBJycnJjF8aqqKgwdOrTdCM/w8HDY2tpi8uTJf+q6D3L8+HFUVlbqlbPZbHzyySc6ZXK5HD///DPeeOMNvejbv5K4uDjk5eVh3rx5T9Rw02g0uHTpEry9vXUid2tqavDHH3+gb9++8Pf3bzc1Q1dQq9WIiYlBTU0Ns5iqUCjQ0tKCd955R08J19bW4s0330R4eHin8uKMGj4C5wWXdBanu5UiLy4uBpfDgZOz87NuioH/J0RFRUEoFGLjxo3tejr9Vdy6dQtDhgx5atdrD6lUisrKSh0f9adBZmYmevXq9UyCeZ42CoUCgYGBmD59OiZMmNCpc96e8gb+feSwTkR0t1Lk3327BenpaQj+6SdUV1Vjz6+/AgDWrF8HOzs7rF39BeTNcgT/+CMaZTKsX7sOdvZ2WLNuHYoKC/HTD63JawJXroCbuzs2BW2ERCLB5q1bwOFwsCpwBSwtLfHVN1+jsqICW7/dAgBYtPhT+Pr6YtvWrSgXlWN90AbY2Njg81WroNEQtn2/HSqVCoVtkZxOzs6wtLREaWkpmuVyuHt4wMTEBAUFBVCrVOjl7Q0AyL93DwDg4OgIKysriEQiNDU2wtXNDWZmZigqKoKypQWeXl4wNjZGXl4eQAQ7e3tYW1ujsqICUqkUzi4usLCwQGlJCZqbm+HRsye4XC7y8/OhUavB59uCb8tHlViM+vp6ODo5gcfjQVRWhqamJri5u8PU1BRFhYVQKpWwtraGnb09aqprIJHUwt7BAT169EBFeTlkMhlcXF1hbm6OkuJiKBQKWFlZwcHRERKJBDXV1bC1tYUNnw+xWIyG+no4OTnBksdDWWkp5HI5LCwt4ezsjPr6esibmsC3tdUbbv6dOHPmDIgIr7/++rNuioH/MqKiomBmZtapKZWHwQ4KCgp6Qm36y7F3sIePry88vbzA4XBgbmEOH18f+Pj4gMPhgAUWevXyhnebBcE2ZsPHx4cJizY1M2XkTUxNwWKx0NPTEz4+PjAyMgLLiAUfXx9m2MU14TLyZubmYLFYcPfwgI+PD4w5HLBYLHh7e8Pb2xstLS24desWJBIJbG1tYWlpiey2DGwurq4wMTHB7dRUVFVVoVevXgCAmzduQCKRwNraGlZWVsjNyUVpaSkcnZxgZmaGtV98gd+Pn8Crr70GMzMzfDRvPs7GnIWdnR369OmDPb/uxp7du/Fc/+fg4uqKr7/ahMPhh/HCCy/AysoKSz/9FJGnI2Fubg6/AQNw6OBB7Az5GZ5envD09MT327cj7EAY/EeNgq2tLT5ftQqnfj8JFouFIUOH4uTvv+PH4B/g6OQIX19f/LLzF4Tu3YsBAwfC2dkZG7/cgKNHjkLeLIe/vz9izkTju61bwbOywnP9++PAb79h185f4OPrAw8PD3y3ZQv+ffDfqK2twdiAAAgFAuzauRM8Hg+9evXClcREnP7jNCx5lrC3t0dMdDTOnY1FRXk5+vTti9ycHBw9fARyeRM8PT1x4/p1RJyKAJfbOko7eOAAdu/6Fenp6RgbMBYZ6RkIWv8lKisrMWToUAgFAny3ZSs0ROjTpw+OHzuOnSEhuH79Gia88ALy793D2i/WoLCwECP9R+JqcjI2b/oarq6uePuddxAVGYkfg39AfHwcXnr5ZZSLRPh85SpkZ2VhzPPP487t29i4IQg1NdUYNHgwLp4/j+3fbcO52Fj849VXUSeRIHDZctxKScG4CeORm5OD9WvWorS0BMNHjMCVy4n49pvNOBMVhZcnvwKVSoWlny7GlcRETJw0CaUlJVj9r8+Rm5uDUaNHo76+Hnm5uRCLxeDb2sLIyAjp6emorqqGvYM9WlpakJWZiQapFHw+HzKZDDl370IsFqOHtTWMjY2RlZmJyooK2Ds4QKPRIDMjA3V1dbC1s0NTUxPuZmdDLBbDkscDh8NBzt27KC8vh62dHVgsFjLS01FTUwt7e3soFApkZ2VBLBbD3MICXC4XeXl5EJWVwdrGBmw2G5kZGagUi+Hg4ACVSoXMjAyIxWKYmJrC1NQUBfn5KCstBc/KChwOB3ezs1FRXg47e3sQETLS0yEWi8HhcBhjp7SkBBaWluByua3pbEUi2PD5YLPZrfKVlTBis7sULv+06N27N6MPOkNzczOuJifDxcVFd9qpi4uwBgz8bcnKyiKhQEA3b7S6ytVU15BQIKDMtsjE0tJSEgoEVJCfT0REuTm5JBQImF1k6uvqSCgQ0J3brTu0VJSXk1AgoNycHCIiKsjPJ6FAQFcSE4moNfJRKBAwPtZVVVUkFAgoK7M1krikuJiEAgHFt0VoNjc3k1AgoOtte7lKJBISCgSU3rZHrEgkIqFAQEKBgNRqNalUKhIKBJTUtpGGVColoUBAqW3+7eJKMSOv3TEmTiikhPjWyFd5k5yEAgHduH6diIhqa2oYea1nxoHf9tNH8+aTRqMhqVRKM6ZOoyWffNr2fHJoxtRpNGPqNCYCc/Enn9CMqdNIKpWSWq2mGVOn0fy5rRGkZaVljLzWve9fK1fRjKnTmF2dZr8/i2ZOn8Hcv1Y+KSmJiIiCvtxAM6ZOYzY6+Xjh/9CMqdNILpeTQqFg5C9evEhERN9t2UIzpk6jjPR0IiIKXLacZkydxkSSvv/uTJoxdRpFno4kIqLz58/TzztCKL/tGzh54nf6eUcII/9b6D76eUcIXW3bPSw+Lo5+3hHC7EwWefo0/bwjhMrbIr9X/+tfNG/2HDrcthnEqZMnad7sOXThXOueuL/+sovmzZ5Dd9qex1cbgmje7DkUumcvERGdjY6mebPnUOQffxARUdj+AzRv9hzm+tu2bqV5s+dQyE87iIjoyOEjFDDmeXpeqN8AAACzSURBVD3Pmm41tWLAgAEDfydup6aiubkZTk5O6OnpidKSEpSVlaFnm0dSXm4uampq0KdvX1hbWyM9LR2NjTLY2dvD29sb5SIRiouL4ebuDldXVxTkF0AsroSPry9sbW2RlZWFhvp62Njw0btPb5SUlKCqqgqDBg3SWZQ1KHIDBgwY6OZ0q+yHBgwYMGBAH4MiN2DAgIFujkGRGzBgwEA3x6DIDRgwYKCbY1DkBgwYMNDN+V804lT99GEa9AAAAABJRU5ErkJggg==;" vertex="1" parent="Ua_9i-EX72ZuRTSeKU5E-8">
          <mxGeometry x="10" width="370" height="738" as="geometry" />
        </mxCell>
        <mxCell id="Ua_9i-EX72ZuRTSeKU5E-7" value="&lt;b&gt;&lt;font style=&quot;font-size: 14px;&quot;&gt;48X&lt;/font&gt;&lt;/b&gt;" style="text;html=1;strokeColor=none;fillColor=default;align=center;verticalAlign=middle;whiteSpace=wrap;rounded=0;fontSize=13;" vertex="1" parent="Ua_9i-EX72ZuRTSeKU5E-8">
          <mxGeometry y="370" width="60" height="30" as="geometry" />
        </mxCell>
      </root>
    </mxGraphModel>
  </diagram>
</mxfile>
